<svg xmlns="http://www.w3.org/2000/svg" width="149.76" height="149.76" viewBox="0 0 149.76 149.76"><defs><style>.a{fill:#2f8946;}.b{fill:#fff;}</style></defs><g transform="translate(-11.97)"><circle class="a" cx="74.88" cy="74.88" r="74.88" transform="translate(11.97)"/><g transform="translate(55.66 31.428)"><path class="b" d="M373.18,6407.638a4.662,4.662,0,0,0-1.372-3.2l-4.116-3.75,1.646-5.305a4.261,4.261,0,0,0-3.109-5.488l-5.4-1.1-1.189-5.4a4.261,4.261,0,0,0-5.488-3.11l-5.3,1.647-3.659-4.116a4.42,4.42,0,0,0-6.4,0l-3.75,4.116-5.3-1.647a4.648,4.648,0,0,0-3.476.366,4.3,4.3,0,0,0-2.012,2.744l-1.1,5.4-5.4,1.189a4.261,4.261,0,0,0-3.109,5.488l1.646,5.3-4.116,3.75a4.151,4.151,0,0,0-1.372,3.2,4.663,4.663,0,0,0,1.372,3.2l4.116,3.75-1.738,5.122a4.262,4.262,0,0,0,3.11,5.488l5.4,1.189,1.19,5.4a4.163,4.163,0,0,0,2.012,2.744c.091.092.274.092.366.183V6460.6a2.693,2.693,0,0,0,1.555,2.469,2.838,2.838,0,0,0,2.927-.274l10.884-8.049,10.793,8.049a2.738,2.738,0,0,0,1.646.549,3.224,3.224,0,0,0,1.281-.275,2.86,2.86,0,0,0,1.555-2.469V6434.8c.091-.091.274-.091.366-.183a4.643,4.643,0,0,0,2.012-2.744l1.189-5.4,5.4-1.189a4.26,4.26,0,0,0,3.109-5.488l-1.646-5.305,4.116-3.75A4.1,4.1,0,0,0,373.18,6407.638Zm-29.544,41.434a2.743,2.743,0,0,0-3.292,0l-8.049,6.037v-20.855l2.835-.914,3.75,4.116a4.154,4.154,0,0,0,3.2,1.372,4.659,4.659,0,0,0,3.2-1.372l3.75-4.116,2.835.914v20.855Zm19.757-38.141a4.46,4.46,0,0,0-1.189,4.481l1.464,4.757-4.848,1.1a4.331,4.331,0,0,0-3.293,3.293l-1.1,4.848-4.756-1.464a4.375,4.375,0,0,0-4.482,1.189l-3.2,3.568-3.384-3.659a4.29,4.29,0,0,0-3.2-1.372,6.117,6.117,0,0,0-1.28.183l-4.756,1.463-1.006-4.847a4.332,4.332,0,0,0-3.293-3.293l-4.848-1.1,1.463-4.756a4.567,4.567,0,0,0-1.189-4.482l-3.658-3.384,3.658-3.384a4.461,4.461,0,0,0,1.189-4.482l-1.463-4.756,4.848-1.1a4.331,4.331,0,0,0,3.293-3.293l1.1-4.848,4.756,1.464a4.57,4.57,0,0,0,4.482-1.189l3.384-3.659,3.385,3.659a4.462,4.462,0,0,0,4.482,1.189l4.756-1.464,1.1,4.848a4.331,4.331,0,0,0,3.293,3.293l4.848,1.1-1.738,4.939a4.57,4.57,0,0,0,1.189,4.482l3.659,3.384Z" transform="translate(-310.8 -6376.448)"/><path class="b" d="M349.765,6399.772l-10.976,10.976-4.482-4.482a2.781,2.781,0,1,0-3.933,3.933l6.4,6.4a2.791,2.791,0,0,0,1.921.824,2.633,2.633,0,0,0,1.921-.824l12.988-12.988a2.717,2.717,0,1,0-3.841-3.841Z" transform="translate(-310.8 -6376.448)"/></g></g></svg>