<svg xmlns="http://www.w3.org/2000/svg" width="149.76" height="149.76" viewBox="0 0 149.76 149.76"><defs><style>.a{fill:#2f8946;}.b{fill:#fff;}</style></defs><g transform="translate(-33.97)"><circle class="a" cx="74.88" cy="74.88" r="74.88" transform="translate(33.97)"/><g transform="translate(73.127 43.02)"><path class="b" d="M372.887,6835.219h-61.8a4.829,4.829,0,0,0-4.824,4.823v38.894a4.83,4.83,0,0,0,4.824,4.824h61.8a4.83,4.83,0,0,0,4.826-4.824v-38.894A4.83,4.83,0,0,0,372.887,6835.219Zm.429,43.717a.428.428,0,0,1-.429.427h-61.8a.427.427,0,0,1-.427-.427v-38.894a.426.426,0,0,1,.427-.426h61.8a.428.428,0,0,1,.429.426Z" transform="translate(-306.267 -6820.04)"/><path class="b" d="M331.407,6832.89a2.2,2.2,0,0,0,2.2-2.2c0-3.961,1.372-6.254,8.385-6.254s8.384,2.293,8.384,6.254a2.2,2.2,0,1,0,4.4,0c0-7.167-4.181-10.651-12.781-10.651s-12.782,3.484-12.782,10.651A2.2,2.2,0,0,0,331.407,6832.89Z" transform="translate(-306.267 -6820.04)"/></g></g></svg>