<svg xmlns="http://www.w3.org/2000/svg" width="149.76" height="149.76" viewBox="0 0 149.76 149.76"><defs><style>.a{fill:#2f8946;}.b{fill:#fff;}</style></defs><g transform="translate(-52.73)"><circle class="a" cx="74.88" cy="74.88" r="74.88" transform="translate(52.73)"/><path class="b" d="M688,6430.176a4.141,4.141,0,1,0-7.5,2.406,2.216,2.216,0,0,0-.15.424c-2.636,10.707-10.245,17.488-16.616,19.458-4.052,1.253-7.694.682-10.256-1.608-4.137-3.7-1.463-9.725,3.087-18.5,2.65-5.106,5.148-9.935,5.3-14.311,7.746-2.353,16.17-15.8,20.743-24.126,2.115-3.842,1.05-6.752.227-8.144a7.4,7.4,0,0,0-6.071-3.68,2.287,2.287,0,1,0,0,4.574,2.95,2.95,0,0,1,2.134,1.433,3.535,3.535,0,0,1-.3,3.614c-7.271,13.226-14.909,22.114-19.008,22.114s-11.736-8.888-19.007-22.116a3.533,3.533,0,0,1-.3-3.612,2.943,2.943,0,0,1,2.133-1.433,2.287,2.287,0,1,0,0-4.574,7.4,7.4,0,0,0-6.07,3.679c-.823,1.393-1.888,4.3.226,8.144,4.568,8.31,12.974,21.737,20.71,24.118-.184,3.336-2.519,7.844-4.786,12.213-2.1,4.049-4.274,8.236-5.193,12.2-1.15,4.961-.1,8.936,3.117,11.814a13.532,13.532,0,0,0,9.215,3.435,18.444,18.444,0,0,0,5.44-.866c9.1-2.815,16.995-11.9,19.675-22.619A4.141,4.141,0,0,0,688,6430.176Z" transform="translate(-534.06 -6345.02)"/></g></svg>