<svg xmlns="http://www.w3.org/2000/svg" width="86" height="46" viewBox="0 0 86 46"><defs><style>.a{fill:#c4c4c4;}.b{fill:#fff;}</style></defs><g transform="translate(0.031 -0.176)"><rect class="a" width="86" height="46" rx="10" transform="translate(-0.031 0.176)"/><path class="b" d="M13.789,24.468,12.6,25.657a1.28,1.28,0,0,1-1.815,0L.374,15.251a1.28,1.28,0,0,1,0-1.815L10.785,3.025a1.28,1.28,0,0,1,1.815,0l1.189,1.189a1.287,1.287,0,0,1-.021,1.837L7.315,12.2H22.706a1.282,1.282,0,0,1,1.285,1.285V15.2a1.282,1.282,0,0,1-1.285,1.285H7.315l6.453,6.148A1.277,1.277,0,0,1,13.789,24.468Z" transform="translate(31.232 8.777)"/></g></svg>