<svg xmlns="http://www.w3.org/2000/svg" width="86" height="46" viewBox="0 0 86 46"><defs><style>.a{fill:#009156;}.b{fill:#fff;}</style></defs><g transform="translate(85.969 45.523) rotate(180)"><rect class="a" width="86" height="46" rx="10" transform="translate(-0.031 -0.477)"/><path class="b" d="M13.793,21.821,12.6,23.01a1.28,1.28,0,0,1-1.815,0L.378,12.6a1.28,1.28,0,0,1,0-1.815L10.788.378a1.28,1.28,0,0,1,1.815,0l1.189,1.189A1.287,1.287,0,0,1,13.771,3.4L7.318,9.551H22.71a1.282,1.282,0,0,1,1.285,1.285V12.55a1.282,1.282,0,0,1-1.285,1.285H7.318l6.453,6.148A1.277,1.277,0,0,1,13.793,21.821Z" transform="translate(31.228 11.425)"/></g></svg>