<svg xmlns="http://www.w3.org/2000/svg" xmlns:xlink="http://www.w3.org/1999/xlink" width="428" height="276.8" viewBox="0 0 428 276.8"><defs><style>.a{fill:url(#a);}.b{fill:#9cc544;}.c,.d{fill:#ffeec2;}.d{font-size:31px;font-family:UnimedSlab-2020-Book, 'Unimed Slab - \32 020';}</style><linearGradient id="a" x1="0.5" x2="0.5" y2="1.34" gradientUnits="objectBoundingBox"><stop offset="0" stop-color="#009156"/><stop offset="1" stop-color="#005c51"/></linearGradient></defs><rect class="a" width="428" height="276.8"/><g transform="translate(-388.768 -4369.31)"><g transform="translate(463.795 4466.287)"><path class="b" d="M490.6,4522.391c0,5.869-4.744,9.783-13.4,9.783a33.94,33.94,0,0,1-11.444-2.134l1.245-8.657h6.522l.179,3.913a19.2,19.2,0,0,0,3.024.3c3.2,0,4.685-.83,4.685-2.195,0-4.032-15.239-2.371-15.239-12.985,0-5.691,5.04-9.545,13.044-9.545a34.062,34.062,0,0,1,10.377,1.779l-1.423,8.479h-6.641l-.059-3.854c-.594-.059-1.127-.119-1.661-.119-2.728,0-4.328,1.008-4.328,2.373C475.479,4514.327,490.6,4511.954,490.6,4522.391Z" transform="translate(-465.754 -4486.756)"/><path class="b" d="M535.937,4529.683a25.891,25.891,0,0,1-11.5,2.491c-10.97,0-17.077-6.047-17.077-15.594,0-9.19,5.929-15.712,15.535-15.712,8.124,0,12.927,4.565,12.927,12.511a23.69,23.69,0,0,1-.712,5.336H517.023c1.008,4.15,4.15,6.049,9.308,6.049a22.049,22.049,0,0,0,7.768-1.424Zm-18.855-17.135H527.1v-.416c0-2.847-1.72-4.862-4.566-4.862C519.809,4507.271,517.792,4509.346,517.082,4512.548Z" transform="translate(-479.366 -4486.756)"/><path class="b" d="M577.486,4501.578l-1.423,8.124a13.968,13.968,0,0,0-3.262-.416,11.668,11.668,0,0,0-5.1,1.008v14.23h4.092v6.82H554.776v-6.82h3.617v-13.577c0-1.9-.889-2.729-2.668-2.729h-.949v-6.107a13.064,13.064,0,0,1,5.4-1.245c3.025,0,5.218.888,6.463,2.727a10.106,10.106,0,0,1,7.056-2.727A11.115,11.115,0,0,1,577.486,4501.578Z" transform="translate(-494.881 -4486.756)"/><path class="b" d="M624.085,4508.444l-3.024.417L613,4531.748H602.323l-7.886-22.888-3.083-.417V4502.1h15.772v6.819h-2.609l3.8,13.459,3.854-13.459h-2.49V4502.1h14.409Z" transform="translate(-506.849 -4487.159)"/><path class="b" d="M660.256,4517.662v6.82H643.535v-6.82h3.735v-16.009l-3.735-.475v-6.345h13.044v22.828ZM646.2,4485.288c0-3.2,2.253-5.4,5.633-5.4s5.633,2.192,5.633,5.4c0,3.32-2.254,5.456-5.633,5.456S646.2,4488.608,646.2,4485.288Z" transform="translate(-523.922 -4479.893)"/><path class="b" d="M695.449,4539.526c0,4.032-3.439,7.412-9.784,7.412a22.328,22.328,0,0,1-7.174-1.245l1.6-5.871a13.02,13.02,0,0,0,3.736.713c2.016,0,3.083-.593,3.083-1.958,0-1.185-1.3-1.956-3.616-2.312l.534-4.684c-6.7-1.6-11.207-6.641-11.207-14.409,0-9.843,7-16.306,17.611-16.306a35.983,35.983,0,0,1,7.589.888l-.83,11.03h-6.937l-.355-4.625c-4.27.534-7.53,3.262-7.53,8.36,0,4.922,3.558,8,9.249,8a18.848,18.848,0,0,0,5.218-.77l1.541,7a28.176,28.176,0,0,1-8.064,1.423l-.118,1.363C693.374,4533.954,695.449,4536.148,695.449,4539.526Z" transform="translate(-533.439 -4486.756)"/><path class="b" d="M713.517,4517.053c0-10.019,5.634-16.186,15.3-16.186,9.31,0,15.061,5.4,15.061,15.416,0,9.546-5.81,15.891-15.18,15.891C719.27,4532.174,713.517,4526.542,713.517,4517.053Zm20.813-.415c0-5.4-2.016-8.538-5.515-8.538-3.618,0-5.751,3.143-5.751,8.538,0,5.218,2.074,8.3,5.632,8.3S734.33,4521.856,734.33,4516.639Z" transform="translate(-546.82 -4486.756)"/><path class="b" d="M788.162,4522.391c0,5.869-4.744,9.783-13.4,9.783a33.937,33.937,0,0,1-11.444-2.134l1.245-8.657h6.522l.179,3.913a19.2,19.2,0,0,0,3.024.3c3.2,0,4.685-.83,4.685-2.195,0-4.032-15.239-2.371-15.239-12.985,0-5.691,5.04-9.545,13.044-9.545a34.061,34.061,0,0,1,10.377,1.779l-1.423,8.479H779.09l-.059-3.854c-.594-.059-1.127-.119-1.661-.119-2.728,0-4.328,1.008-4.328,2.373C773.042,4514.327,788.162,4511.954,788.162,4522.391Z" transform="translate(-563.114 -4486.756)"/></g><g transform="translate(514.506 4513.691)"><path class="c" d="M573.915,4592.587c0,9.6-6.166,15.95-14.7,15.95a15.8,15.8,0,0,1-5.04-.771v7.945l4.031.474v6.345H541.126v-6.819H544.8v-28.46c0-2.076-.89-2.67-2.55-2.67H541.3v-6.106a11.984,11.984,0,0,1,5.336-1.245,7.454,7.454,0,0,1,5.693,2.192,11.738,11.738,0,0,1,7.294-2.192C568.1,4577.23,573.915,4582.98,573.915,4592.587Zm-9.665.237c0-5.1-2.491-8.243-6.4-8.243a7.5,7.5,0,0,0-3.676.89v15.3a8.988,8.988,0,0,0,3.5.712C561.819,4601.48,564.25,4598.161,564.25,4592.824Z" transform="translate(-541.126 -4559.144)"/><path class="c" d="M616.809,4577.94l-1.423,8.124a13.965,13.965,0,0,0-3.262-.416,11.645,11.645,0,0,0-5.1,1.009v14.229h4.092v6.819H594.1v-6.819h3.617V4587.31c0-1.9-.89-2.729-2.668-2.729H594.1v-6.106a13.058,13.058,0,0,1,5.4-1.245c3.025,0,5.218.888,6.463,2.727a10.1,10.1,0,0,1,7.056-2.727A11.1,11.1,0,0,1,616.809,4577.94Z" transform="translate(-558.458 -4559.144)"/><path class="c" d="M629.883,4584.621c0-10.02,5.633-16.187,15.3-16.187,9.31,0,15.062,5.4,15.062,15.417,0,9.545-5.81,15.89-15.239,15.89C635.635,4599.741,629.883,4594.108,629.883,4584.621Zm20.813-.415c0-5.4-2.017-8.539-5.516-8.539-3.617,0-5.751,3.143-5.751,8.539,0,5.218,2.074,8.3,5.573,8.3C648.62,4592.508,650.7,4589.424,650.7,4584.206Zm6.581-27.572-11.681,10.08-4.981-4.8,10.317-11.563Z" transform="translate(-570.166 -4550.349)"/><path class="c" d="M711.769,4592.587c0,9.6-6.167,15.95-14.706,15.95a15.8,15.8,0,0,1-5.04-.771v7.945l4.031.474v6.345H678.979v-6.819h3.676v-28.46c0-2.076-.89-2.67-2.55-2.67h-.949v-6.106a11.984,11.984,0,0,1,5.336-1.245,7.455,7.455,0,0,1,5.693,2.192,11.739,11.739,0,0,1,7.294-2.192C705.957,4577.23,711.769,4582.98,711.769,4592.587Zm-9.666.237c0-5.1-2.491-8.243-6.4-8.243a7.5,7.5,0,0,0-3.676.89v15.3a8.988,8.988,0,0,0,3.5.712C699.672,4601.48,702.1,4598.161,702.1,4592.824Z" transform="translate(-586.23 -4559.144)"/><path class="c" d="M754.662,4577.94l-1.423,8.124a13.965,13.965,0,0,0-3.262-.416,11.645,11.645,0,0,0-5.1,1.009v14.229h4.092v6.819H731.952v-6.819h3.617V4587.31c0-1.9-.89-2.729-2.668-2.729h-.949v-6.106a13.057,13.057,0,0,1,5.4-1.245c3.025,0,5.218.888,6.463,2.727a10.1,10.1,0,0,1,7.056-2.727A11.1,11.1,0,0,1,754.662,4577.94Z" transform="translate(-603.562 -4559.144)"/><path class="c" d="M785.78,4594.024v6.82H769.059v-6.82h3.735v-16.009l-3.735-.475V4571.2H782.1v22.829Zm-14.053-32.374c0-3.2,2.254-5.4,5.634-5.4s5.632,2.193,5.632,5.4c0,3.32-2.253,5.455-5.632,5.455S771.727,4564.97,771.727,4561.65Z" transform="translate(-615.703 -4552.282)"/><path class="c" d="M798.144,4593.416c0-10.02,5.634-16.186,15.3-16.186,9.31,0,15.061,5.4,15.061,15.417,0,9.545-5.81,15.89-15.18,15.89C803.9,4608.537,798.144,4602.9,798.144,4593.416Zm20.813-.415c0-5.4-2.016-8.539-5.515-8.539-3.618,0-5.751,3.144-5.751,8.539,0,5.218,2.074,8.3,5.632,8.3S818.957,4598.22,818.957,4593Z" transform="translate(-625.219 -4559.144)"/><path class="c" d="M872.789,4598.754c0,5.869-4.744,9.783-13.4,9.783a33.937,33.937,0,0,1-11.444-2.134l1.245-8.657h6.522l.179,3.914a19.249,19.249,0,0,0,3.024.3c3.2,0,4.685-.83,4.685-2.194,0-4.032-15.239-2.371-15.239-12.985,0-5.692,5.04-9.546,13.044-9.546a34.061,34.061,0,0,1,10.377,1.778l-1.423,8.479h-6.641l-.059-3.854c-.594-.059-1.127-.118-1.661-.118-2.728,0-4.328,1.006-4.328,2.372C857.669,4590.688,872.789,4588.317,872.789,4598.754Z" transform="translate(-641.514 -4559.144)"/></g><text class="d" transform="translate(459.768 4470.31)"><tspan x="0" y="0">Rede de</tspan></text></g></svg>