<svg xmlns="http://www.w3.org/2000/svg" width="95.93" height="95.931" viewBox="0 0 95.93 95.931"><defs><style>.a{fill:#007c3e;}</style></defs><path class="a" d="M6767.816,4898.4h5.758v5.758a1.4,1.4,0,0,0,1.4,1.4h7.163a1.4,1.4,0,0,0,1.4-1.4V4898.4h5.758a1.4,1.4,0,0,0,1.4-1.4v-7.163a1.4,1.4,0,0,0-1.4-1.4h-5.758v-5.758a1.4,1.4,0,0,0-1.4-1.4h-7.163a1.4,1.4,0,0,0-1.4,1.4v5.758h-5.758a1.4,1.4,0,0,0-1.4,1.4V4897a1.4,1.4,0,0,0,1.4,1.4m1.405-7.163h5.758a1.405,1.405,0,0,0,1.4-1.405v-5.758h4.353v5.758a1.406,1.406,0,0,0,1.405,1.405h5.758v4.353h-5.758a1.406,1.406,0,0,0-1.405,1.405v5.758h-4.353V4897a1.405,1.405,0,0,0-1.4-1.405h-5.758Z" transform="translate(-6730.595 -4866.94)"/><path class="a" d="M6774.979,4909.919h-14.326a1.4,1.4,0,0,0-1.4,1.405v14.326a1.405,1.405,0,0,0,1.4,1.405h14.326a1.405,1.405,0,0,0,1.4-1.405v-14.326a1.4,1.4,0,0,0-1.4-1.405m-1.4,14.326h-11.516v-11.516h11.516Z" transform="translate(-6730.595 -4866.94)"/><path class="a" d="M6796.468,4909.919h-14.326a1.405,1.405,0,0,0-1.405,1.405v14.326a1.406,1.406,0,0,0,1.405,1.405h14.326a1.405,1.405,0,0,0,1.405-1.405v-14.326a1.4,1.4,0,0,0-1.405-1.405m-1.4,14.326h-11.516v-11.516h11.516Z" transform="translate(-6730.595 -4866.94)"/><path class="a" d="M6810.794,4927.055h7.163a1.405,1.405,0,0,0,1.4-1.405v-14.326a1.4,1.4,0,0,0-1.4-1.405h-7.163a1.4,1.4,0,0,0-1.4,1.405v14.326a1.405,1.405,0,0,0,1.4,1.405m1.405-14.326h4.352v11.516H6812.2Z" transform="translate(-6730.595 -4866.94)"/><path class="a" d="M6810.794,4948.544h7.163a1.4,1.4,0,0,0,1.4-1.4v-14.326a1.4,1.4,0,0,0-1.4-1.4h-7.163a1.4,1.4,0,0,0-1.4,1.4v14.326a1.4,1.4,0,0,0,1.4,1.4m1.405-14.326h4.352v11.516H6812.2Z" transform="translate(-6730.595 -4866.94)"/><path class="a" d="M6825.12,4895.593h-20.083v-18.68h2.175a1.405,1.405,0,0,0,1.406-1.405v-7.163a1.405,1.405,0,0,0-1.406-1.405h-57.3a1.4,1.4,0,0,0-1.405,1.405v7.163a1.4,1.4,0,0,0,1.405,1.405h2.175v18.68H6732a1.405,1.405,0,0,0-1.4,1.405v64.468a1.4,1.4,0,0,0,1.4,1.405h93.12a1.4,1.4,0,0,0,1.4-1.405V4897a1.405,1.405,0,0,0-1.4-1.405m-1.405,7.163h-18.678V4898.4h18.678Zm-90.308-4.353h18.677v4.352h-18.677Zm54.493,61.657h-7.934v-8.429a1.406,1.406,0,0,0-2.811,0v8.429h-7.934v-18.679h7.934v4.127a1.406,1.406,0,0,0,2.811,0v-4.127h7.934Zm-22.26-25.842h25.841v4.353H6765.64Zm25.07,7.163h2.177a1.4,1.4,0,0,0,1.4-1.4v-7.163a1.4,1.4,0,0,0-1.4-1.4h-28.652a1.406,1.406,0,0,0-1.406,1.4v7.163a1.406,1.406,0,0,0,1.406,1.4h2.176v18.679H6754.9v-38.512a1.406,1.406,0,1,0-2.811,0v38.512h-18.678v-54.494h18.678v9.858a1.406,1.406,0,1,0,2.811,0v-38.511h34.93a1.405,1.405,0,0,0,0-2.81h-38.511v-4.353h54.493v4.353h-9.859a1.405,1.405,0,1,0,0,2.81h6.279v83.147H6790.71Zm33,18.679h-18.678v-54.494h18.678Z" transform="translate(-6730.595 -4866.94)"/><path class="a" d="M6746.327,4909.919h-7.163a1.405,1.405,0,0,0-1.405,1.405v14.326a1.406,1.406,0,0,0,1.405,1.405h7.163a1.406,1.406,0,0,0,1.406-1.405v-14.326a1.406,1.406,0,0,0-1.406-1.405m-1.405,14.326h-4.352v-11.516h4.352Z" transform="translate(-6730.595 -4866.94)"/><path class="a" d="M6746.327,4931.408h-7.163a1.405,1.405,0,0,0-1.405,1.4v14.326a1.405,1.405,0,0,0,1.405,1.4h7.163a1.406,1.406,0,0,0,1.406-1.4v-14.326a1.406,1.406,0,0,0-1.406-1.4m-1.405,14.326h-4.352v-11.516h4.352Z" transform="translate(-6730.595 -4866.94)"/></svg>