<svg xmlns="http://www.w3.org/2000/svg" viewBox="0 0 76.63 76.63"><defs><style>.cls-1{fill:#008c50;}</style></defs><g id="Camada_2" data-name="Camada 2"><g id="Camada_1-2" data-name="Camada 1"><path class="cls-1" d="M63.16,0A13.48,13.48,0,0,0,49.69,13.47V40.41H47.44a2.24,2.24,0,0,0-2.24,2.24V56.27a2.24,2.24,0,0,0,2.24,2.25h2.25A13.57,13.57,0,0,1,36.22,72.14,13.81,13.81,0,0,1,22.6,58.52V53.75A20.31,20.31,0,0,0,34.7,48a20,20,0,0,0,6-14.29V6.73A6.74,6.74,0,0,0,34,0H6.73A6.74,6.74,0,0,0,0,6.73V33.67A19.94,19.94,0,0,0,6,48a20.31,20.31,0,0,0,12.1,5.79v4.77a18,18,0,1,0,36.07,0h2.24a2.25,2.25,0,0,0,2.25-2.25V42.65a2.24,2.24,0,0,0-2.25-2.24H54.18V13.47a9,9,0,0,1,18,0V74.38a2.25,2.25,0,1,0,4.49,0V13.47A13.49,13.49,0,0,0,63.16,0ZM4.49,6.73A2.25,2.25,0,0,1,6.73,4.49H34a2.25,2.25,0,0,1,2.25,2.24V18H29.48a2.25,2.25,0,0,0,0,4.49h6.74v4.16a8.17,8.17,0,0,1-2.25.33,10.43,10.43,0,0,1-5.39-1.8l0,0a15.74,15.74,0,0,0-8.19-2.66,15.68,15.68,0,0,0-8.18,2.66l0,0a10.41,10.41,0,0,1-5.41,1.81,8.16,8.16,0,0,1-2.24-.33Zm0,26.94V31.22a12.21,12.21,0,0,0,2.24.21,14.89,14.89,0,0,0,8-2.66,11.23,11.23,0,0,1,5.58-1.83,11.09,11.09,0,0,1,5.58,1.83,15,15,0,0,0,8,2.66,12.4,12.4,0,0,0,2.25-.21v2.45a16.67,16.67,0,0,1-.16,2.25H29.48a2.24,2.24,0,1,0,0,4.47h5.2A15.88,15.88,0,0,1,4.49,33.67ZM54.18,54H49.69V44.9h4.49Z"/><path class="cls-1" d="M24.84,9h-9a2.25,2.25,0,0,0,0,4.49h9a2.25,2.25,0,1,0,0-4.49Z"/></g></g></svg>