<svg xmlns="http://www.w3.org/2000/svg" width="91.611" height="91.611" viewBox="0 0 91.611 91.611"><defs><style>.a{fill:#007c3e;}</style></defs><g transform="translate(-1133.315 -5381.74)"><path class="a" d="M1158.941,5393.561h-1.015a9.847,9.847,0,0,0-9.835,9.836v2.236a9.842,9.842,0,0,0,.415,2.825l3.174,10.582a5.714,5.714,0,0,0,11.187-1.641v-1.168a6.835,6.835,0,0,1,2.014-4.864l1.016-1.015a9.837,9.837,0,0,0-6.956-16.791m4.867,14.7-1.017,1.015a9.779,9.779,0,0,0-2.879,6.955v1.168a2.759,2.759,0,0,1-5.4.793l-3.174-10.582a6.878,6.878,0,0,1-.291-1.977V5403.4a6.889,6.889,0,0,1,6.881-6.881h1.015a6.881,6.881,0,0,1,4.866,11.745"/><path class="a" d="M1158.434,5402.426a4.433,4.433,0,0,0,0,8.866v-2.955a1.478,1.478,0,1,1,1.478-1.478h2.955a4.439,4.439,0,0,0-4.433-4.433"/><path class="a" d="M1177.643,5426.068v-35.462a2.959,2.959,0,0,0-2.956-2.956H1142.18a2.959,2.959,0,0,0-2.955,2.956v35.462a2.958,2.958,0,0,0,2.955,2.955h32.507a2.958,2.958,0,0,0,2.956-2.955m-35.463,0v-35.462h32.507l0,35.462Z"/><path class="a" d="M1183.553,5427.545v-38.417a7.4,7.4,0,0,0-7.388-7.388H1140.7a7.4,7.4,0,0,0-7.388,7.388v38.417a7.4,7.4,0,0,0,7.388,7.388h8.573l-5.682,31.25,3.584,7.168h22.512l3.583-7.168-5.681-31.25h8.573a7.4,7.4,0,0,0,7.388-7.388m-47.283,0v-38.417a4.439,4.439,0,0,1,4.433-4.433h35.462a4.439,4.439,0,0,1,4.433,4.433v38.417a4.439,4.439,0,0,1-4.433,4.433H1140.7a4.439,4.439,0,0,1-4.433-4.433M1149,5470.4l-1.478-2.955h21.816l-1.478,2.955Zm20.958-5.911h-23.056l5.372-29.552h12.31Z"/><path class="a" d="M1164.344,5446.754h-11.82v14.776h11.82Zm-8.865,2.955h5.91v8.866h-5.91Z"/><rect class="a" width="2.955" height="2.955" transform="translate(1159.911 5440.844)"/><rect class="a" width="2.955" height="2.955" transform="translate(1154.001 5440.844)"/><path class="a" d="M1224.926,5389.4l-14.776-2.955v-.267a4.438,4.438,0,0,0-4.433-4.433h-14.776a4.438,4.438,0,0,0-4.433,4.433v26.6a4.427,4.427,0,0,0,2.955,4.161v20.959h-1.477a4.437,4.437,0,0,0-4.433,4.432v5.911a4.439,4.439,0,0,0,4.433,4.433h1.477v.412l-1.984.662a10.065,10.065,0,0,0,3.184,19.612h.557a10.077,10.077,0,0,0,10.064-10.066V5416.93a4.426,4.426,0,0,0,2.955-4.161v-10.343h1.478a4.438,4.438,0,0,0,4.433-4.432v-.266l14.776-2.956Zm-35.463-3.222a1.48,1.48,0,0,1,1.478-1.478h1.478v29.552h-1.478a1.48,1.48,0,0,1-1.478-1.478Zm-1.477,63.536a1.479,1.479,0,0,1-1.478-1.477v-5.911a1.479,1.479,0,0,1,1.478-1.477h1.477v8.865Zm3.233,20.687h-.557a7.109,7.109,0,0,1-2.248-13.854l4.005-1.335v-38h5.91v46.083a7.117,7.117,0,0,1-7.11,7.111m10.065-57.627a1.479,1.479,0,0,1-1.477,1.478h-4.433v-29.552h4.433a1.479,1.479,0,0,1,1.477,1.478Zm5.911-14.775a1.479,1.479,0,0,1-1.478,1.477h-1.478v-13.3a4.375,4.375,0,0,0-.272-1.478h1.75a1.48,1.48,0,0,1,1.478,1.478Zm14.775-5.643-11.82,2.364v-5.262l11.82,2.364Z"/><path class="a" d="M1190.941,5458.575a4.433,4.433,0,1,0,4.433,4.433,4.438,4.438,0,0,0-4.433-4.433m0,5.91a1.478,1.478,0,1,1,1.478-1.477,1.479,1.479,0,0,1-1.478,1.477"/></g></svg>