<svg version="1.2" baseProfile="tiny-ps" xmlns="http://www.w3.org/2000/svg" viewBox="0 0 598 186" width="598" height="186">
	<title>dark</title>
	<style>
		tspan { white-space:pre }
		.shp0 { fill: #0c0c0c } 
		.shp1 { fill: #ffffff } 
	</style>
	<g id="dark">
		<g id="&lt;Group&gt;">
			<path id="&lt;Path&gt;" class="shp0" d="M580.75 0.31L17.15 0.31C7.77 0.31 0.17 7.91 0.17 17.29L0.17 168.35C0.17 177.73 7.77 185.33 17.15 185.33L580.75 185.33C590.13 185.33 597.73 177.73 597.73 168.35L597.73 17.29C597.73 7.91 590.13 0.31 580.75 0.31Z" />
			<g id="&lt;Group&gt;">
				<path id="&lt;Compound Path&gt;" fill-rule="evenodd" class="shp1" d="M324.65 119.64C324.65 130.58 316.09 138.63 305.58 138.63C295.07 138.63 286.51 130.58 286.51 119.64C286.51 108.63 295.07 100.64 305.58 100.64C316.09 100.64 324.65 108.63 324.65 119.64ZM316.3 119.64C316.3 112.8 311.34 108.13 305.58 108.13C299.82 108.13 294.86 112.8 294.86 119.64C294.86 126.4 299.82 131.15 305.58 131.15C311.34 131.15 316.3 126.4 316.3 119.64ZM283.05 119.64C283.05 130.58 274.49 138.63 263.98 138.63C253.48 138.63 244.92 130.58 244.92 119.64C244.92 108.63 253.48 100.64 263.98 100.64C274.49 100.64 283.05 108.63 283.05 119.64ZM274.7 119.64C274.7 112.8 269.74 108.13 263.98 108.13C258.23 108.13 253.26 112.8 253.26 119.64C253.26 126.4 258.23 131.15 263.98 131.15C269.74 131.15 274.7 126.4 274.7 119.64ZM241.63 106.47C241.92 107.91 242.06 109.64 242.06 111.51C242.06 117.55 240.41 125.03 235.08 130.36C229.9 135.76 223.28 138.63 214.5 138.63C198.24 138.63 184.57 125.39 184.57 109.13C184.57 92.87 198.24 79.63 214.5 79.63C223.5 79.63 229.9 83.16 234.72 87.76L229.04 93.45C225.58 90.21 220.91 87.69 214.5 87.69C202.63 87.69 193.35 97.26 193.35 109.13C193.35 121.01 202.63 130.58 214.5 130.58C222.2 130.58 226.59 127.48 229.4 124.68C231.7 122.37 233.21 119.06 233.79 114.53L214.5 114.53L214.5 106.47L241.63 106.47ZM417.73 114.89L392.33 125.39C394.27 129.21 397.29 131.15 401.54 131.15C405.78 131.15 408.73 129.06 410.89 125.9L417.37 130.22C415.28 133.31 410.24 138.63 401.54 138.63C390.74 138.63 382.69 130.29 382.69 119.64C382.69 108.34 390.82 100.64 400.6 100.64C410.46 100.64 415.28 108.49 416.86 112.73L417.73 114.89ZM407.94 112.01C407.01 109.64 404.2 107.98 400.89 107.98C396.64 107.98 390.74 111.72 390.96 119.06L407.94 112.01ZM370.31 81.65L378.66 81.65L378.66 137.48L370.31 137.48L370.31 81.65ZM356.64 101.79L364.55 101.79L364.55 135.9C364.55 149.93 356.28 155.69 346.49 155.69C337.28 155.69 331.74 149.5 329.65 144.46L336.92 141.44C338.22 144.53 341.38 148.2 346.49 148.2C352.75 148.2 356.64 144.32 356.64 137.05L356.64 134.32L356.35 134.32C354.48 136.62 350.88 138.63 346.35 138.63C336.85 138.63 328.14 130.36 328.14 119.71C328.14 108.99 336.85 100.64 346.35 100.64C350.88 100.64 354.48 102.66 356.35 104.89L356.64 104.89L356.64 101.79ZM357.21 119.71C357.21 113.02 352.75 108.13 347.07 108.13C341.31 108.13 336.49 113.02 336.49 119.71C336.49 126.33 341.31 131.15 347.07 131.15C352.75 131.15 357.21 126.33 357.21 119.71ZM474.28 98.99C474.28 109.64 465.2 116.33 455.96 116.33L444.32 116.33L444.32 137.48L435.99 137.48L435.99 81.65L455.96 81.65C465.2 81.65 474.28 88.34 474.28 98.99ZM465.95 98.99C465.95 94.58 462.41 89.42 456.18 89.42L444.32 89.42L444.32 108.56L456.18 108.56C462.41 108.56 465.95 103.32 465.95 98.99ZM524.63 115.98L524.63 137.39L516.59 137.39L516.59 133.08L516.3 133.08C514.36 136.02 511.27 138.54 505.67 138.54C498.34 138.54 491.81 133.73 491.81 126.26C491.81 118.07 499.92 113.69 507.9 113.69C511.85 113.69 515.08 114.98 516.59 115.84L516.59 115.27C516.52 110.67 512.13 108.08 507.82 108.08C504.73 108.08 501.79 109.09 500.21 112.18L492.81 109.09C495.4 103.2 501.65 100.54 507.68 100.54C517.23 100.54 524.63 106.07 524.63 115.98ZM516.59 122.31C514.36 121.23 512.64 120.44 508.97 120.44C504.88 120.44 500.14 122.09 500.14 126.4C500.14 129.78 503.94 131.14 506.67 131.14C511.49 131.14 515.94 127.48 516.59 122.31ZM563.21 101.76L540.29 154.41L531.6 154.41L540.08 135.59L525.21 101.76L534.19 101.76L544.1 125.97L544.39 125.97L553.94 101.76L563.21 101.76ZM478.88 81.65L487.21 81.65L487.21 137.48L478.88 137.48L478.88 81.65Z" />
			</g>
			<g id="&lt;Group&gt;">
				<path id="&lt;Compound Path&gt;" fill-rule="evenodd" class="shp1" d="M193.1 37.38L200.23 37.38C208.43 37.38 213.27 41.8 213.27 50.65C213.27 59.49 208.43 64.12 200.48 64.12L193.1 64.12L193.1 37.38ZM199.92 60.28C205.3 60.28 208.4 57.22 208.4 50.65C208.4 44.07 205.3 41.23 199.92 41.23L197.85 41.23L197.85 60.28L199.92 60.28Z" />
				<path id="&lt;Compound Path&gt;" class="shp1" d="M217.71 37.86C217.71 36.27 218.95 35.19 220.62 35.19C222.29 35.19 223.54 36.27 223.54 37.86C223.54 39.41 222.29 40.52 220.62 40.52C218.95 40.52 217.71 39.41 217.71 37.86ZM218.25 44.04L222.96 44.04L222.96 64.12L218.25 64.12L218.25 44.04Z" />
				<path id="&lt;Compound Path&gt;" class="shp1" d="M226.95 61.82L229.14 58.82C230.92 60.21 232.65 61.06 234.69 61.06C236.88 61.06 237.91 60.03 237.91 58.66C237.91 56.98 235.73 56.22 233.59 55.41C230.96 54.42 227.95 52.9 227.95 49.55C227.95 46.07 230.76 43.55 235.26 43.55C238.05 43.55 240.29 44.69 241.93 45.95L239.77 48.85C238.37 47.82 236.95 47.1 235.37 47.1C233.35 47.1 232.39 48.06 232.39 49.32C232.39 50.91 234.42 51.51 236.6 52.31C239.32 53.33 242.36 54.64 242.36 58.38C242.36 61.83 239.62 64.61 234.55 64.61C231.81 64.61 228.91 63.44 226.95 61.82Z" />
				<path id="&lt;Compound Path&gt;" fill-rule="evenodd" class="shp1" d="M246.57 44.04L250.43 44.04L250.79 46.18L250.92 46.18C252.61 44.73 254.76 43.55 256.97 43.55C261.99 43.55 264.87 47.57 264.87 53.77C264.87 60.64 260.77 64.61 256.3 64.61C254.52 64.61 252.77 63.81 251.13 62.4L251.28 65.74L251.28 72.07L246.57 72.07L246.57 44.04ZM260.03 53.82C260.03 49.81 258.72 47.44 255.66 47.44C254.21 47.44 252.84 48.18 251.28 49.7L251.28 59.05C252.72 60.28 254.14 60.72 255.3 60.72C257.99 60.72 260.03 58.37 260.03 53.82Z" />
				<path id="&lt;Compound Path&gt;" fill-rule="evenodd" class="shp1" d="M268.3 54.1C268.3 47.41 272.85 43.55 277.85 43.55C282.86 43.55 287.41 47.41 287.41 54.1C287.41 60.75 282.86 64.61 277.85 64.61C272.85 64.61 268.3 60.75 268.3 54.1ZM282.56 54.1C282.56 50.07 280.8 47.39 277.85 47.39C274.91 47.39 273.14 50.07 273.14 54.1C273.14 58.12 274.91 60.77 277.85 60.77C280.8 60.77 282.56 58.12 282.56 54.1Z" />
				<path id="&lt;Compound Path&gt;" class="shp1" d="M292.06 44.04L295.92 44.04L296.28 46.75L296.41 46.75C298.21 45 300.26 43.55 303.01 43.55C307.31 43.55 309.19 46.46 309.19 51.53L309.19 64.12L304.47 64.12L304.47 52.13C304.47 48.83 303.53 47.59 301.35 47.59C299.59 47.59 298.42 48.45 296.77 50.09L296.77 64.12L292.06 64.12L292.06 44.04Z" />
				<path id="&lt;Compound Path&gt;" class="shp1" d="M314.87 38.38L320.91 31.25L324.15 34.37L317.23 40.7L314.87 38.38ZM314.94 44.04L319.65 44.04L319.65 64.12L314.94 64.12L314.94 44.04Z" />
				<path id="&lt;Compound Path&gt;" class="shp1" d="M323.13 44.04L327.9 44.04L331.09 54.46C331.65 56.44 332.24 58.5 332.79 60.51L332.96 60.51C333.52 58.5 334.1 56.44 334.66 54.46L337.85 44.04L342.4 44.04L335.58 64.12L330.13 64.12L323.13 44.04Z" />
				<path id="&lt;Compound Path&gt;" fill-rule="evenodd" class="shp1" d="M344.31 54.1C344.31 47.57 348.84 43.55 353.56 43.55C358.99 43.55 361.86 47.47 361.86 53.08C361.86 53.98 361.76 54.88 361.65 55.37L348.9 55.37C349.3 58.94 351.58 60.97 354.82 60.97C356.54 60.97 358.01 60.43 359.48 59.51L361.09 62.44C359.17 63.73 356.75 64.61 354.2 64.61C348.66 64.61 344.31 60.72 344.31 54.1ZM357.78 52.17C357.78 49.08 356.41 47.19 353.66 47.19C351.32 47.19 349.26 48.95 348.85 52.17L357.78 52.17Z" />
				<path id="&lt;Compound Path&gt;" class="shp1" d="M366.35 58.96L366.35 35.24L371.06 35.24L371.06 59.2C371.06 60.36 371.58 60.77 372.07 60.77C372.29 60.77 372.45 60.77 372.81 60.69L373.4 64.21C372.83 64.43 372.04 64.61 370.91 64.61C367.58 64.61 366.35 62.46 366.35 58.96Z" />
				<path id="&lt;Compound Path&gt;" class="shp1" d="M385.6 44.04L389.45 44.04L389.82 46.75L389.95 46.75C391.74 45 393.79 43.55 396.54 43.55C400.84 43.55 402.72 46.46 402.72 51.53L402.72 64.12L398.01 64.12L398.01 52.13C398.01 48.83 397.06 47.59 394.88 47.59C393.12 47.59 391.96 48.45 390.31 50.09L390.31 64.12L385.6 64.12L385.6 44.04Z" />
				<path id="&lt;Compound Path&gt;" fill-rule="evenodd" class="shp1" d="M407.39 58.72C407.39 54.42 410.95 52.18 419.2 51.3C419.13 49.14 418.27 47.34 415.55 47.34C413.55 47.34 411.68 48.24 409.91 49.32L408.17 46.18C410.38 44.79 413.23 43.55 416.42 43.55C421.44 43.55 423.91 46.64 423.91 52.23L423.91 64.12L420.05 64.12L419.69 61.9L419.56 61.9C417.76 63.44 415.7 64.61 413.33 64.61C409.81 64.61 407.39 62.23 407.39 58.72ZM419.2 58.74L419.2 54.23C413.75 54.91 411.94 56.34 411.94 58.37C411.94 60.14 413.15 60.92 414.83 60.92C416.47 60.92 417.71 60.12 419.2 58.74Z" />
			</g>
			<g id="&lt;Group&gt;">
				<g id="&lt;Group&gt;">
					<path id="&lt;Path&gt;" class="shp1" d="M47.76 37.34C46.54 38.72 45.81 40.79 45.81 43.47L45.81 142.17C45.81 144.43 46.34 146.24 47.23 147.58L101.98 92.2L47.76 37.34Z" />
				</g>
				<g id="&lt;Group&gt;">
					<path id="&lt;Path&gt;" class="shp1" d="M103.94 90.22L120.84 73.12L57.14 36.93C54.49 35.42 52.06 35.11 50.13 35.78L103.94 90.22Z" />
				</g>
				<g id="&lt;Group&gt;">
					<path id="&lt;Path&gt;" class="shp1" d="M103.94 94.17L49.27 149.47C51.31 150.59 54.08 150.45 57.14 148.71L121.63 112.07L103.94 94.17Z" />
				</g>
				<g id="&lt;Group&gt;">
					<path id="&lt;Path&gt;" class="shp1" d="M144.17 86.38L123.34 74.54L105.89 92.2L124.13 110.65L144.17 99.26C150.41 95.72 150.41 89.92 144.17 86.38Z" />
				</g>
			</g>
		</g>
	</g>
</svg>