<svg version="1.2" baseProfile="tiny-ps" xmlns="http://www.w3.org/2000/svg" viewBox="0 0 598 186" width="598" height="186">
	<title>dark</title>
	<style>
		tspan { white-space:pre }
		.shp0 { fill: #0c0c0c } 
		.shp1 { fill: #ffffff } 
	</style>
	<g id="dark">
		<g id="&lt;Group&gt;">
			<path id="&lt;Path&gt;" class="shp0" d="M580.75 0.36L17.15 0.36C7.77 0.36 0.17 7.96 0.17 17.34L0.17 168.4C0.17 177.78 7.77 185.39 17.15 185.39L580.75 185.39C590.13 185.39 597.73 177.78 597.73 168.4L597.73 17.34C597.73 7.96 590.13 0.36 580.75 0.36Z" />
			<g id="&lt;Group&gt;">
				<g id="&lt;Group&gt;">
					<g id="&lt;Group&gt;">
						<path id="&lt;Path&gt;" class="shp1" d="M131.92 93.9C131.79 79.45 143.76 72.41 144.31 72.08C137.53 62.19 127.02 60.85 123.33 60.74C114.5 59.81 105.94 66.03 101.45 66.03C96.87 66.03 89.93 60.83 82.48 60.98C72.88 61.14 63.89 66.69 58.97 75.32C48.81 92.92 56.38 118.79 66.12 133.02C71 139.99 76.69 147.77 84.14 147.49C91.43 147.19 94.15 142.85 102.95 142.85C111.67 142.85 114.23 147.49 121.83 147.32C129.66 147.19 134.58 140.32 139.28 133.28C144.92 125.3 147.17 117.43 147.26 117.03C147.08 116.97 132.07 111.24 131.92 93.9Z" />
					</g>
					<g id="&lt;Group&gt;">
						<path id="&lt;Path&gt;" class="shp1" d="M117.56 51.38C121.48 46.48 124.17 39.8 123.41 33.03C117.74 33.29 110.65 36.96 106.56 41.76C102.95 45.98 99.71 52.91 100.55 59.43C106.93 59.9 113.47 56.21 117.56 51.38Z" />
					</g>
				</g>
				<g id="&lt;Group&gt;">
					<g id="&lt;Group&gt;">
						<path id="&lt;Compound Path&gt;" fill-rule="evenodd" class="shp1" d="M237.29 146.34L227.13 146.34L221.57 128.85L202.23 128.85L196.93 146.34L187.04 146.34L206.21 86.81L218.04 86.81L237.29 146.34ZM219.89 121.51L214.87 105.97C214.33 104.38 213.33 100.64 211.86 94.76L211.68 94.76C211.09 97.29 210.15 101.03 208.85 105.97L203.91 121.51L219.89 121.51Z" />
					</g>
					<g id="&lt;Group&gt;">
						<path id="&lt;Compound Path&gt;" fill-rule="evenodd" class="shp1" d="M286.58 124.34C286.58 131.65 284.61 137.42 280.66 141.66C277.12 145.43 272.73 147.31 267.5 147.31C261.85 147.31 257.78 145.27 255.31 141.21L255.14 141.21L255.14 163.82L245.59 163.82L245.59 117.54C245.59 112.95 245.48 108.25 245.24 103.41L253.63 103.41L254.16 110.22L254.34 110.22C257.52 105.09 262.35 102.53 268.82 102.53C273.88 102.53 278.11 104.53 281.5 108.54C284.88 112.55 286.58 117.81 286.58 124.34ZM276.86 124.69C276.86 120.52 275.92 117.07 274.03 114.36C271.97 111.54 269.2 110.12 265.74 110.12C263.38 110.12 261.23 110.91 259.33 112.46C257.42 114.03 256.16 116.07 255.58 118.61C255.28 119.79 255.14 120.75 255.14 121.51L255.14 128.67C255.14 131.79 256.09 134.43 258 136.57C259.92 138.73 262.41 139.8 265.47 139.8C269.06 139.8 271.86 138.42 273.85 135.65C275.86 132.88 276.86 129.23 276.86 124.69Z" />
					</g>
					<g id="&lt;Group&gt;">
						<path id="&lt;Compound Path&gt;" fill-rule="evenodd" class="shp1" d="M335.94 124.34C335.94 131.65 333.97 137.42 330.02 141.66C326.49 145.43 322.11 147.31 316.86 147.31C311.21 147.31 307.16 145.27 304.68 141.21L304.51 141.21L304.51 163.82L294.97 163.82L294.97 117.54C294.97 112.95 294.85 108.25 294.62 103.41L303 103.41L303.54 110.22L303.72 110.22C306.89 105.09 311.71 102.53 318.2 102.53C323.25 102.53 327.48 104.53 330.87 108.54C334.26 112.55 335.94 117.81 335.94 124.34ZM326.23 124.69C326.23 120.52 325.29 117.07 323.4 114.36C321.34 111.54 318.57 110.12 315.1 110.12C312.74 110.12 310.61 110.91 308.7 112.46C306.79 114.03 305.54 116.07 304.95 118.61C304.65 119.79 304.51 120.75 304.51 121.51L304.51 128.67C304.51 131.79 305.46 134.43 307.37 136.57C309.29 138.73 311.77 139.8 314.84 139.8C318.43 139.8 321.23 138.42 323.23 135.65C325.22 132.88 326.23 129.23 326.23 124.69Z" />
					</g>
					<g id="&lt;Group&gt;">
						<path id="&lt;Path&gt;" class="shp1" d="M391.15 129.64C391.15 134.71 389.39 138.82 385.85 142.01C381.98 145.49 376.58 147.22 369.65 147.22C363.24 147.22 358.1 145.98 354.21 143.51L356.42 135.56C360.61 138.1 365.21 139.36 370.21 139.36C373.81 139.36 376.6 138.55 378.61 136.93C380.61 135.31 381.61 133.14 381.61 130.43C381.61 128.01 380.78 125.97 379.14 124.32C377.49 122.67 374.74 121.14 370.92 119.72C360.49 115.82 355.29 110.13 355.29 102.65C355.29 97.75 357.11 93.74 360.76 90.62C364.41 87.49 369.27 85.92 375.34 85.92C380.76 85.92 385.26 86.87 388.85 88.75L386.47 96.52C383.11 94.7 379.32 93.79 375.07 93.79C371.71 93.79 369.1 94.61 367.21 96.26C365.63 97.73 364.83 99.53 364.83 101.65C364.83 104 365.74 105.95 367.56 107.47C369.15 108.89 372.04 110.42 376.22 112.07C381.34 114.13 385.11 116.55 387.53 119.31C389.94 122.08 391.15 125.52 391.15 129.64Z" />
					</g>
					<g id="&lt;Group&gt;">
						<path id="&lt;Path&gt;" class="shp1" d="M422.68 110.56L412.17 110.56L412.17 131.41C412.17 136.71 414.02 139.36 417.74 139.36C419.43 139.36 420.85 139.21 421.97 138.92L422.23 146.16C420.36 146.87 417.88 147.22 414.82 147.22C411.05 147.22 408.1 146.07 405.98 143.78C403.87 141.48 402.8 137.62 402.8 132.21L402.8 110.56L396.53 110.56L396.53 103.41L402.8 103.41L402.8 95.55L412.17 92.72L412.17 103.41L422.68 103.41L422.68 110.56Z" />
					</g>
					<g id="&lt;Group&gt;">
						<path id="&lt;Compound Path&gt;" fill-rule="evenodd" class="shp1" d="M470.11 124.52C470.11 131.12 468.23 136.53 464.46 140.77C460.51 145.14 455.26 147.31 448.74 147.31C442.43 147.31 437.42 145.22 433.68 141.03C429.94 136.86 428.07 131.58 428.07 125.23C428.07 118.57 429.99 113.13 433.85 108.89C437.7 104.65 442.9 102.53 449.44 102.53C455.73 102.53 460.81 104.62 464.63 108.8C468.29 112.87 470.11 118.1 470.11 124.52ZM460.21 124.83C460.21 120.87 459.36 117.48 457.65 114.64C455.65 111.22 452.8 109.51 449.09 109.51C445.25 109.51 442.34 111.22 440.34 114.64C438.63 117.48 437.79 120.93 437.79 125.01C437.79 128.97 438.63 132.36 440.34 135.19C442.4 138.62 445.29 140.33 449.01 140.33C452.65 140.33 455.51 138.59 457.56 135.1C459.33 132.21 460.21 128.79 460.21 124.83Z" />
					</g>
					<g id="&lt;Group&gt;">
						<path id="&lt;Path&gt;" class="shp1" d="M501.1 111.8C500.16 111.63 499.16 111.54 498.1 111.54C494.75 111.54 492.15 112.81 490.33 115.34C488.74 117.58 487.95 120.4 487.95 123.81L487.95 146.34L478.41 146.34L478.49 116.93C478.49 111.98 478.37 107.48 478.14 103.41L486.45 103.41L486.8 111.63L487.06 111.63C488.06 108.81 489.66 106.53 491.83 104.83C493.95 103.3 496.25 102.53 498.73 102.53C499.6 102.53 500.4 102.59 501.1 102.7L501.1 111.8Z" />
					</g>
					<g id="&lt;Group&gt;">
						<path id="&lt;Compound Path&gt;" fill-rule="evenodd" class="shp1" d="M543.76 122.84C543.76 124.55 543.64 125.99 543.41 127.17L514.8 127.17C514.91 131.41 516.3 134.65 518.95 136.89C521.36 138.89 524.48 139.88 528.31 139.88C532.54 139.88 536.4 139.21 539.88 137.86L541.38 144.48C537.32 146.25 532.52 147.14 526.98 147.14C520.33 147.14 515.1 145.17 511.3 141.26C507.51 137.35 505.61 132.08 505.61 125.49C505.61 119.02 507.37 113.63 510.91 109.32C514.61 104.73 519.62 102.44 525.92 102.44C532.1 102.44 536.79 104.73 539.98 109.32C542.5 112.98 543.76 117.48 543.76 122.84ZM534.66 120.37C534.73 117.55 534.11 115.1 532.82 113.04C531.16 110.39 528.62 109.06 525.21 109.06C522.1 109.06 519.56 110.36 517.62 112.95C516.03 115.01 515.09 117.48 514.8 120.37L534.66 120.37Z" />
					</g>
				</g>
			</g>
			<g id="&lt;Group&gt;">
				<path id="&lt;Compound Path&gt;" fill-rule="evenodd" class="shp1" d="M193.1 37L200.23 37C208.43 37 213.27 41.41 213.27 50.26C213.27 59.11 208.43 63.74 200.48 63.74L193.1 63.74L193.1 37ZM199.92 59.9C205.3 59.9 208.4 56.84 208.4 50.26C208.4 43.69 205.3 40.84 199.92 40.84L197.85 40.84L197.85 59.9L199.92 59.9Z" />
				<path id="&lt;Compound Path&gt;" class="shp1" d="M217.71 37.47C217.71 35.89 218.95 34.81 220.62 34.81C222.29 34.81 223.54 35.89 223.54 37.47C223.54 39.03 222.29 40.14 220.62 40.14C218.95 40.14 217.71 39.03 217.71 37.47ZM218.25 43.65L222.96 43.65L222.96 63.74L218.25 63.74L218.25 43.65Z" />
				<path id="&lt;Compound Path&gt;" class="shp1" d="M226.95 61.43L229.14 58.44C230.92 59.83 232.65 60.68 234.69 60.68C236.88 60.68 237.91 59.65 237.91 58.28C237.91 56.59 235.73 55.84 233.59 55.02C230.96 54.03 227.95 52.52 227.95 49.17C227.95 45.68 230.76 43.16 235.26 43.16C238.05 43.16 240.29 44.3 241.93 45.57L239.77 48.46C238.37 47.43 236.95 46.71 235.37 46.71C233.35 46.71 232.39 47.68 232.39 48.94C232.39 50.52 234.42 51.13 236.6 51.93C239.32 52.95 242.36 54.25 242.36 58C242.36 61.45 239.62 64.23 234.55 64.23C231.81 64.23 228.91 63.05 226.95 61.43Z" />
				<path id="&lt;Compound Path&gt;" fill-rule="evenodd" class="shp1" d="M246.57 43.65L250.43 43.65L250.79 45.8L250.92 45.8C252.61 44.34 254.76 43.16 256.97 43.16C261.99 43.16 264.87 47.19 264.87 53.38C264.87 60.26 260.77 64.23 256.3 64.23C254.52 64.23 252.77 63.43 251.13 62.02L251.28 65.36L251.28 71.69L246.57 71.69L246.57 43.65ZM260.03 53.44C260.03 49.43 258.72 47.06 255.66 47.06C254.21 47.06 252.84 47.79 251.28 49.31L251.28 58.67C252.72 59.9 254.14 60.34 255.3 60.34C257.99 60.34 260.03 57.98 260.03 53.44Z" />
				<path id="&lt;Compound Path&gt;" fill-rule="evenodd" class="shp1" d="M268.3 53.71C268.3 47.02 272.85 43.16 277.85 43.16C282.86 43.16 287.41 47.02 287.41 53.71C287.41 60.37 282.86 64.23 277.85 64.23C272.85 64.23 268.3 60.37 268.3 53.71ZM282.56 53.71C282.56 49.69 280.8 47.01 277.85 47.01C274.91 47.01 273.14 49.69 273.14 53.71C273.14 57.74 274.91 60.39 277.85 60.39C280.8 60.39 282.56 57.74 282.56 53.71Z" />
				<path id="&lt;Compound Path&gt;" class="shp1" d="M292.06 43.65L295.92 43.65L296.28 46.37L296.41 46.37C298.21 44.62 300.26 43.16 303 43.16C307.31 43.16 309.19 46.08 309.19 51.14L309.19 63.74L304.47 63.74L304.47 51.75C304.47 48.45 303.53 47.2 301.35 47.2C299.59 47.2 298.42 48.07 296.77 49.7L296.77 63.74L292.06 63.74L292.06 43.65Z" />
				<path id="&lt;Compound Path&gt;" class="shp1" d="M314.87 38L320.91 30.86L324.15 33.99L317.23 40.32L314.87 38ZM314.94 43.65L319.65 43.65L319.65 63.74L314.94 63.74L314.94 43.65Z" />
				<path id="&lt;Compound Path&gt;" class="shp1" d="M323.13 43.65L327.9 43.65L331.09 54.07C331.65 56.05 332.24 58.11 332.79 60.12L332.96 60.12C333.52 58.11 334.1 56.05 334.66 54.07L337.85 43.65L342.4 43.65L335.58 63.74L330.13 63.74L323.13 43.65Z" />
				<path id="&lt;Compound Path&gt;" fill-rule="evenodd" class="shp1" d="M344.31 53.71C344.31 47.19 348.84 43.16 353.56 43.16C358.99 43.16 361.86 47.09 361.86 52.7C361.86 53.6 361.76 54.5 361.65 54.99L348.9 54.99C349.3 58.55 351.58 60.58 354.82 60.58C356.54 60.58 358.01 60.04 359.48 59.13L361.09 62.05C359.17 63.35 356.75 64.23 354.2 64.23C348.66 64.23 344.31 60.34 344.31 53.71ZM357.78 51.78C357.78 48.69 356.41 46.81 353.66 46.81C351.32 46.81 349.26 48.56 348.85 51.78L357.78 51.78Z" />
				<path id="&lt;Compound Path&gt;" class="shp1" d="M366.35 58.57L366.35 34.85L371.06 34.85L371.06 58.82C371.06 59.98 371.58 60.39 372.07 60.39C372.29 60.39 372.45 60.39 372.81 60.31L373.4 63.82C372.83 64.05 372.04 64.23 370.91 64.23C367.58 64.23 366.35 62.07 366.35 58.57Z" />
				<path id="&lt;Compound Path&gt;" class="shp1" d="M385.6 43.65L389.45 43.65L389.82 46.37L389.95 46.37C391.74 44.62 393.79 43.16 396.54 43.16C400.84 43.16 402.72 46.08 402.72 51.14L402.72 63.74L398.01 63.74L398.01 51.75C398.01 48.45 397.06 47.2 394.88 47.2C393.12 47.2 391.96 48.07 390.31 49.7L390.31 63.74L385.6 63.74L385.6 43.65Z" />
				<path id="&lt;Compound Path&gt;" fill-rule="evenodd" class="shp1" d="M407.39 58.34C407.39 54.04 410.95 51.8 419.2 50.92C419.13 48.76 418.27 46.96 415.55 46.96C413.55 46.96 411.68 47.86 409.91 48.94L408.17 45.8C410.38 44.41 413.23 43.16 416.42 43.16C421.44 43.16 423.91 46.26 423.91 51.85L423.91 63.74L420.05 63.74L419.69 61.51L419.56 61.51C417.76 63.05 415.7 64.23 413.33 64.23C409.81 64.23 407.39 61.84 407.39 58.34ZM419.2 58.36L419.2 53.84C413.75 54.53 411.94 55.95 411.94 57.98C411.94 59.76 413.15 60.53 414.83 60.53C416.47 60.53 417.71 59.73 419.2 58.36Z" />
			</g>
		</g>
	</g>
</svg>