<svg xmlns="http://www.w3.org/2000/svg" width="82.48" height="102.72" viewBox="0 0 82.48 102.72"><defs><style>.a{fill:#007c3e;}</style></defs><path class="a" d="M6776.76,5409.64a2.007,2.007,0,0,0-2.007,2.006.413.413,0,0,1-.412.413,2.006,2.006,0,0,0,0,4.012,4.43,4.43,0,0,0,4.425-4.425A2.006,2.006,0,0,0,6776.76,5409.64Z" transform="translate(-6737.32 -5376.185)"/><path class="a" d="M6816.795,5454.8a2.005,2.005,0,0,0-2.622,1.082c-4.728,11.37-18.567,19.009-34.436,19.009-.97,0-1.936-.033-2.9-.09l1.437-9.156c.485.021.972.035,1.461.035a29.258,29.258,0,0,0,17.368-5.36c4.843-3.59,7.51-8.42,7.51-13.6a2.006,2.006,0,1,0-4.012,0c0,5.333-3.921,10.022-9.8,12.669a14.147,14.147,0,0,0-12.277-12.413,2.716,2.716,0,0,1-1.586-.764,2.67,2.67,0,0,1,.915-4.374l3.69-1.446a21.331,21.331,0,0,0,11.349-10.213,20.25,20.25,0,0,0,2.05-6.811c9.063,3.184,16.134,9.168,19.175,16.346a2.006,2.006,0,1,0,3.695-1.565,30.949,30.949,0,0,0-9.342-11.938,40.05,40.05,0,0,0-7.338-4.6,24.838,24.838,0,0,0,3.211-16.635,33.562,33.562,0,0,0-9.666-18.855,33.129,33.129,0,0,0-20.224-9.824c-7.514-.684-14.336,1.622-19.207,6.493-6.771,6.771-8.451,17.272-4.573,27.356a15.149,15.149,0,0,0-5.975,28.045,37.311,37.311,0,0,0,1.018,11.878,8.608,8.608,0,0,0,8.764,14.818,29.375,29.375,0,0,0,7.938,5.176,8.726,8.726,0,0,0,.734,2.827,8.574,8.574,0,0,0,6.143,4.948,51.46,51.46,0,0,0,10.444,1.061,48.012,48.012,0,0,0,23.68-5.981c6.862-3.892,11.862-9.252,14.46-15.5a2.006,2.006,0,0,0-1.082-2.623m-58.714-69.169c4.014-4.014,9.7-5.907,16.007-5.334a29.115,29.115,0,0,1,17.75,8.666c9.168,9.168,11.432,22.259,5.562,31.034q-1.314-.5-2.67-.926a6.759,6.759,0,0,0-5.288-4.517,14.933,14.933,0,0,0-3.437-15.723l-.546-.546a10.707,10.707,0,0,0-12.71-1.784,6.664,6.664,0,0,1-3.225.835h-4.765a2.006,2.006,0,0,0-1.938,2.522,11.4,11.4,0,0,1-2.954,10.968s-.7.7-.741.753a15.029,15.029,0,0,0-4.062-1.315c-4.1-9.068-2.95-18.665,3.017-24.633m9.171,36.205a14.964,14.964,0,0,0,14.389,1.114c-1.115,3.816-5.509,7.173-11.445,8.523-1.4.319-2.938.713-4.519,1.155a15.087,15.087,0,0,0,1.575-10.792m.5-4.748-4.263-4.264a15.443,15.443,0,0,0,3.662-11.475h2.378a10.681,10.681,0,0,0,5.172-1.339,6.677,6.677,0,0,1,7.926,1.112l.546.546a10.9,10.9,0,1,1-15.421,15.42m-26.414,8.107a11.141,11.141,0,0,1,22.281-.217,1.132,1.132,0,0,1-1.318.559,2.007,2.007,0,0,0-1.126,3.852,5.208,5.208,0,0,0,1.45.209l.092,0a11.142,11.142,0,0,1-21.379-4.4m8.815,36.856a4.6,4.6,0,1,1,4.6-4.6,4.6,4.6,0,0,1-4.6,4.6m13.413,2.935a9.069,9.069,0,0,0-.481.962,25.283,25.283,0,0,1-5.7-3.838,8.6,8.6,0,0,0-7.237-13.269c-.2,0-.4.009-.6.023a32.89,32.89,0,0,1-.916-9.01,15.118,15.118,0,0,0,9.365-.547,114.844,114.844,0,0,1,13.093-3.922,23.2,23.2,0,0,0,10.409-5.184,12.377,12.377,0,0,0,4.438-9.144,2.562,2.562,0,0,1,2.6-2.564,2.679,2.679,0,0,1,2.525,2.663,16.133,16.133,0,0,1-1.755,7.219,17.321,17.321,0,0,1-9.228,8.281l-3.69,1.445a6.683,6.683,0,0,0-2.288,10.948,6.752,6.752,0,0,0,3.927,1.908,10.128,10.128,0,0,1,8.851,9.809,28.731,28.731,0,0,1-13.766.126,8.733,8.733,0,0,0-9.55,4.094m9.281,9.406c-.919-.134-1.831-.291-2.732-.479a4.672,4.672,0,0,1-3.076-6.917,4.7,4.7,0,0,1,5.135-2.2c.695.168,1.4.309,2.112.43Z" transform="translate(-6737.32 -5376.185)"/><path class="a" d="M6817.789,5445.863a2.006,2.006,0,1,0,0,4.012h.01a2.006,2.006,0,0,0-.01-4.012" transform="translate(-6737.32 -5376.185)"/></svg>