<svg xmlns="http://www.w3.org/2000/svg" width="82.277" height="82.277" viewBox="0 0 82.277 82.277"><defs><style>.a{fill:#007c3e;}</style></defs><path class="a" d="M2555.813,5419.511c-4.67,0-8.035,3.907-8.035,8.652,0,5.214,4.013,8.634,10.088,13.81,1.059.9,2.154,1.834,3.316,2.851a1.607,1.607,0,0,0,2.117,0c1.162-1.017,2.257-1.949,3.316-2.851,6.075-5.176,10.088-8.6,10.088-13.81,0-4.745-3.366-8.652-8.035-8.652a7.558,7.558,0,0,1-12.855,0Zm7.977,7.656c.013-.044,1.261-4.442,4.878-4.442,2.749,0,4.821,2.337,4.821,5.438,0,3.73-3.372,6.6-8.959,11.363-.741.632-1.5,1.278-2.289,1.96-.79-.682-1.549-1.328-2.29-1.96-5.587-4.76-8.959-7.633-8.959-11.363,0-3.1,2.072-5.438,4.821-5.438,3.571,0,4.822,4.247,4.879,4.447a1.607,1.607,0,0,0,3.1,0" transform="translate(-2521.102 -5386.407)"/><path class="a" d="M2541.35,5401.191a1.607,1.607,0,1,1-1.607,1.607,1.607,1.607,0,0,1,1.607-1.607" transform="translate(-2521.102 -5386.407)"/><path class="a" d="M2593.059,5424.626a6.369,6.369,0,0,0,3.892,1.313,6.428,6.428,0,0,0,3.9-11.54l-8.075-6.206v-20.179a1.607,1.607,0,0,0-1.607-1.607h-9.642a1.607,1.607,0,0,0-1.607,1.607v10.3l-13.784-10.593a6.426,6.426,0,0,0-7.79,0l-12.235,9.4a1.607,1.607,0,1,0,1.958,2.548l12.23-9.4a3.215,3.215,0,0,1,3.884,0l34.716,26.68a3.214,3.214,0,0,1-3.884,5.122l-31.792-24.451a1.6,1.6,0,0,0-1.9-.041c-.073.051-31.839,24.486-31.843,24.488a3.209,3.209,0,0,1-2.271.638,2.817,2.817,0,0,1-2.8-2.427,3.24,3.24,0,0,1,1.187-3.334l11.013-8.463a1.607,1.607,0,0,0-1.959-2.548l-11.007,8.459a6.417,6.417,0,0,0-2.369,6.6,6,6,0,0,0,5.623,4.917,6.422,6.422,0,0,0,4.531-1.281l0,0c.068-.05.161-.121.288-.217v22.047a9.609,9.609,0,0,0-7.2,7.662,8.013,8.013,0,0,0,4.628,14.569h66.207a8.012,8.012,0,0,0,4.628-14.569,9.606,9.606,0,0,0-7.2-7.663v-22.046Zm-9.928-35h6.428v16.1l-6.428-4.94Zm-36.317,75.849h-17.677a4.8,4.8,0,0,1-2.348-9,1.611,1.611,0,0,0,.81-1.248,6.388,6.388,0,0,1,11.6-3.1,1.6,1.6,0,0,0,1.683.634,4.763,4.763,0,0,1,5.935,4.618,1.621,1.621,0,0,0,1.049,1.86,3.2,3.2,0,0,1-1.049,6.232m27.674-8.781a6.383,6.383,0,0,0-2.382,2.353h-19.731a6.381,6.381,0,0,0-2.382-2.353,8.042,8.042,0,0,0-.128-.863h24.751a8.1,8.1,0,0,0-.128.863m-22.109,8.781a6.385,6.385,0,0,0,.863-3.214h18a6.394,6.394,0,0,0,.862,3.214Zm44.5-10.247a1.606,1.606,0,0,0,.81,1.248,4.8,4.8,0,0,1-2.349,9h-17.676a3.2,3.2,0,0,1-1.05-6.231,1.623,1.623,0,0,0,1.05-1.861,4.763,4.763,0,0,1,5.935-4.618,1.606,1.606,0,0,0,1.683-.634,6.388,6.388,0,0,1,11.6,3.1m-7.324-8.986a9.663,9.663,0,0,0-6.246,3.211,7.2,7.2,0,0,0-.825-.048,8.065,8.065,0,0,0-6.424,3.214h-27.646a8.065,8.065,0,0,0-6.425-3.214,7.212,7.212,0,0,0-.825.048,9.663,9.663,0,0,0-6.246-3.211v-24.3l27.318-21.011,27.319,21.011Z" transform="translate(-2521.102 -5386.407)"/></svg>