<svg xmlns="http://www.w3.org/2000/svg" width="102.168" height="98.811" viewBox="0 0 102.168 98.811"><defs><style>.a{fill:#007c3e;}</style></defs><path class="a" d="M5410.226,5451.755h-6.061a9.873,9.873,0,0,0,3.19-5.488,13.368,13.368,0,0,0,.025-4.787,17.266,17.266,0,0,1,.121-6.268h0c.429-1.914.116-3.351-.928-4.27-1.265-1.112-3.331-1.159-6.141-.139a7.051,7.051,0,0,0-2.365,1.436,11.243,11.243,0,0,0-13.539,4.5,23.221,23.221,0,0,0-7.071-3.082,1.5,1.5,0,1,0-.756,2.9,19.84,19.84,0,0,1,6.449,2.871c-.046.125-.091.251-.133.378a10.82,10.82,0,0,0-.519,4.49,12.379,12.379,0,0,0,3.448,7.463H5371.3V5447.1h3.978a1.5,1.5,0,0,0,0-2.994h-17.226v-5.593a5.762,5.762,0,0,0,.565-.289,22.648,22.648,0,0,1,11.422-2.556h.025a1.5,1.5,0,0,0,.024-2.993,30.77,30.77,0,0,0-5.01.322v-7.955a12.617,12.617,0,0,0,3.55-3.909,11.219,11.219,0,0,0,1.591-6.311c.017-.4.035-.828.06-1.309a.365.365,0,0,0,0-.04.35.35,0,0,0,0-.039v-3.671a7.9,7.9,0,0,0-7.894-7.9h-.523c2.217-2.266,3.7-5.205,3.7-7.848v-3.071a13.061,13.061,0,0,0-3.573-9.48,11.389,11.389,0,0,0-7.935-3.33h-.047a11.393,11.393,0,0,0-7.937,3.33,13.049,13.049,0,0,0-3.576,9.48v3.071c0,2.642,1.483,5.581,3.7,7.848h-.526a7.723,7.723,0,0,0-6.891,4.157l-8.714,14.152c-.986-1.77-3.429-5.576-6.318-5.8a2.9,2.9,0,0,0-2.485.709,2.726,2.726,0,0,0-.4,2.482l2.1,12.006a3.716,3.716,0,0,0,1.038,2.477,3.2,3.2,0,0,0,2.564.4c.2-.022.428-.046.685-.07a16.933,16.933,0,0,1,8.466,1.362,25.174,25.174,0,0,1,3.357,1.867v8.021H5326.9c-1.761,0-1.808-.1-2.035-.579-.293-.621-2.967-6.072-6.613-6.351a2.887,2.887,0,0,0-2.49.71,2.7,2.7,0,0,0-.393,2.5l2.073,11.842h-4.474a2.456,2.456,0,0,0-2.453,2.453v11.732a2.458,2.458,0,0,0,2.453,2.458h3.73v2.78a5.779,5.779,0,0,0,5.773,5.773h78.251a5.78,5.78,0,0,0,5.773-5.773v-2.78h3.73a2.461,2.461,0,0,0,2.458-2.458v-11.732a2.458,2.458,0,0,0-2.458-2.453m-10.5-8.9c-1.2-2.616-1.444-5.069-.677-6.907a4.075,4.075,0,0,1,2.408-2.334,7.633,7.633,0,0,1,2.492-.553,1.137,1.137,0,0,1,.649.127c.051.045.2.409-.016,1.368h0a20.323,20.323,0,0,0-.174,7.267,11.014,11.014,0,0,1,.037,3.75c-.849,3.571-2.918,5.292-7.795,5.906l.039-.033c4.139-3.573,3.936-6.645,3.037-8.591m-14.25,1.117a7.808,7.808,0,0,1,.384-3.231,9,9,0,0,1,7.229-6.2,8.555,8.555,0,0,1,3.2.265c-1.09,2.618-.833,5.921.724,9.3,1.465,3.172-4.111,6.546-5.879,7.517a8.98,8.98,0,0,1-5.653-7.653m-17.166,3.127v4.654h-13.026a2.332,2.332,0,0,1,.223-4.654Zm-6.222-13.487a20.38,20.38,0,0,0-4.977,2.026l-.081.047c-.166-.2-.382-.474-.581-.729-.244-.312-.547-.7-.91-1.147a31.936,31.936,0,0,0-3.03-3.122l8.243-3.326c.43-.174.879-.367,1.336-.579v6.83Zm-13-4.774a1.857,1.857,0,0,1-1.377-3.449l.039-.016,7.561-3.276,1.778,3.514Zm4.946-47.707c3.723.07,7.7,2.612,8.421,8.011-3.27-.624-9.94-1.959-10.716-2.16h0a4.779,4.779,0,0,0-1.209-.161,5.555,5.555,0,0,0-3.266,1.287,8.327,8.327,0,0,1-1.646.964c.75-5.35,4.707-7.872,8.417-7.941m-8.544,12.888v-1.783a9.482,9.482,0,0,0,3.483-1.671c.981-.683,1.3-.872,2.016-.686h0c.537.139,8.3,1.727,11.582,2.331v1.809c0,2.573-2.455,6.343-5.839,7.953-.047.019-.094.04-.138.063-.186.084-.373.164-.564.235a5.681,5.681,0,0,1-2,.412,5.752,5.752,0,0,1-2-.41c-.182-.067-.362-.144-.542-.226a1.372,1.372,0,0,0-.149-.069c-3.144-1.509-5.857-5.12-5.857-7.958m12,10.893v.449a3.487,3.487,0,1,1-6.912,0v-.45c.142.06.284.116.427.17a8.022,8.022,0,0,0,6.065,0c.14-.052.28-.108.42-.166m-16.157,2.682c1.2-1.941,2.456-2.733,4.343-2.733h1.909v.5a6.467,6.467,0,1,0,12.9,0v-.5h1.908a4.907,4.907,0,0,1,4.9,4.9v3.633c-.025.476-.043.907-.06,1.3-.1,2.377-.129,3.095-1.194,4.942-1.21,2.1-3.064,3.557-6.162,4.846l-1.825-3.606a6.7,6.7,0,0,0,1.894-1.485,1.534,1.534,0,0,0,.2-.256l1.8-2.969a1.5,1.5,0,1,0-2.558-1.555l-1.718,2.829a4.136,4.136,0,0,1-1.693,1.106l-9.394,4.071a4.785,4.785,0,0,0-2.078,1.621,19.191,19.191,0,0,0-4.265-1.68l3.047-4.954a1.5,1.5,0,0,0-2.55-1.568l-3.607,5.864c-1.446-.231-2.9-.378-4.3-.49Zm-9.825,21.9a20.262,20.262,0,0,0-4.521-.089c-.273.025-.9.092-.984.1-.031-.16-2.115-12.045-2.115-12.045,1.183.5,2.964,2.831,3.941,4.883a2.867,2.867,0,0,0,1.937,1.863c.932.12,1.61.1,1.917.121.4.028.8.06,1.2.093Zm10.568,8.5c2.348,2.249,3.36,4.341,3.487,5.129a11.185,11.185,0,0,1-3.487.459Zm-12.557,8.635h9.426c5.81,0,7.809-.343,8.914-1.528a2.69,2.69,0,0,0,.7-2.084c-.189-2.762-4-8.482-11.579-11.987a17.7,17.7,0,0,0-2.537-.928l1.453-5.355a19.978,19.978,0,0,1,7.656,2.4,4.864,4.864,0,0,0,4.855,4.815,4.77,4.77,0,0,0,.907-.087,31.508,31.508,0,0,1,3.906,3.827c.34.417.62.775.866,1.092a12.656,12.656,0,0,0,.975,1.153v6.176a5.324,5.324,0,0,0-4.348,7.627h-21.2Zm-7.357-2.292c1.008,2.126,2.75,2.28,4.364,2.291v5.125h-6.042l-2.095-11.974c1.191.467,2.866,2.637,3.773,4.558m87.531,21.066h-44.519a1.5,1.5,0,0,0,0,2.993H5403.5v2.78a2.783,2.783,0,0,1-2.78,2.78h-78.251a2.783,2.783,0,0,1-2.78-2.78v-2.78h38.9a1.5,1.5,0,1,0,0-2.993h-45.079v-10.656h96.182Z" transform="translate(-5310.516 -5378.14)"/></svg>