<svg xmlns="http://www.w3.org/2000/svg" width="88.701" height="88.731" viewBox="0 0 88.701 88.731"><defs><style>.a{fill:#007c3e;}</style></defs><path class="a" d="M4004.5,5453.939h-7.572v-5.731h7.537a1.765,1.765,0,0,0,1.766-1.766v-11.651a1.765,1.765,0,0,0-1.766-1.766h-66.933v-25.506h25.152a5.265,5.265,0,0,0,4.972,7h13.7a5.263,5.263,0,0,0,4.908-7.176,9.071,9.071,0,0,0-1.764-17.969h-46.966v-4.43a1.766,1.766,0,0,0-1.766-1.766h-16.435a1.766,1.766,0,0,0-1.766,1.766v35.386a1.766,1.766,0,1,0,3.532,0v-33.62H3934v81.667h-12.9v-32.287a1.766,1.766,0,0,0-3.532,0v34.053a1.766,1.766,0,0,0,1.766,1.766h16.435a1.766,1.766,0,0,0,1.766-1.766v-21.937h33.249v5.731h-7.571a1.766,1.766,0,0,0-1.766,1.766v14.022a1.765,1.765,0,0,0,1.766,1.766h41.29a1.766,1.766,0,0,0,1.766-1.766v-14.022a1.766,1.766,0,0,0-1.766-1.766m-23.145-42.949h-13.7a1.736,1.736,0,0,1,0-3.471h13.7a1.736,1.736,0,0,1,0,3.471m3.144-18.082a5.539,5.539,0,0,1,0,11.079h-46.967v-11.079Zm-46.967,43.648H4002.7v8.12h-65.167Zm36.781,11.652H3993.4v5.731h-19.083Zm28.421,19.754h-37.758v-10.491h37.758Z" transform="translate(-3917.57 -5383.18)"/><path class="a" d="M3919.36,5426.413a1.733,1.733,0,1,1-1.733,1.733,1.732,1.732,0,0,1,1.733-1.733" transform="translate(-3917.57 -5383.18)"/><path class="a" d="M3975,5422.742l.256,0a23.788,23.788,0,0,0,7.773-1.391,1.766,1.766,0,1,0-1.189-3.326,20.286,20.286,0,0,1-13.676,0,1.766,1.766,0,1,0-1.188,3.326,23.757,23.757,0,0,0,8.024,1.393" transform="translate(-3917.57 -5383.18)"/><path class="a" d="M3963.26,5425.771a1.766,1.766,0,0,0,1.111,2.236,33.273,33.273,0,0,0,10.627,1.739h.313a33.307,33.307,0,0,0,10.318-1.738,1.766,1.766,0,1,0-1.125-3.348,29.821,29.821,0,0,1-19.008,0,1.765,1.765,0,0,0-2.236,1.112" transform="translate(-3917.57 -5383.18)"/></svg>