<svg xmlns="http://www.w3.org/2000/svg" width="89.393" height="89.393" viewBox="0 0 89.393 89.393"><defs><style>.a{fill:#007c3e;}</style></defs><path class="a" d="M1220.167,4897.026H1200.8V4871.7a1.489,1.489,0,0,0-1.489-1.49h-44.7a1.489,1.489,0,0,0-1.49,1.49v25.328h-19.369a1.489,1.489,0,0,0-1.489,1.49v59.595a1.489,1.489,0,0,0,1.489,1.49h86.414a1.49,1.49,0,0,0,1.49-1.49v-59.595a1.49,1.49,0,0,0-1.49-1.49m-84.924,2.98h17.879v56.615h-17.879Zm46.187,56.615h-8.939v-14.9h8.939Zm16.389,0H1184.41v-14.9h2.979v-2.979h-20.858v2.979h2.98v14.9H1156.1v-83.433h41.717Zm20.858,0H1200.8v-56.615h17.879Z" transform="translate(-1132.264 -4870.208)"/><path class="a" d="M1205.268,4914.9h8.939a1.489,1.489,0,0,0,1.49-1.489v-8.94a1.489,1.489,0,0,0-1.49-1.49h-8.939a1.49,1.49,0,0,0-1.49,1.49v8.94a1.49,1.49,0,0,0,1.49,1.489m1.49-8.939h5.96v5.96h-5.96Z" transform="translate(-1132.264 -4870.208)"/><path class="a" d="M1205.268,4929.8h8.939a1.489,1.489,0,0,0,1.49-1.49v-8.939a1.489,1.489,0,0,0-1.49-1.49h-8.939a1.49,1.49,0,0,0-1.49,1.49v8.939a1.49,1.49,0,0,0,1.49,1.49m1.49-8.939h5.96v5.96h-5.96Z" transform="translate(-1132.264 -4870.209)"/><path class="a" d="M1205.268,4944.7h8.939a1.489,1.489,0,0,0,1.49-1.49v-8.939a1.489,1.489,0,0,0-1.49-1.49h-8.939a1.49,1.49,0,0,0-1.49,1.49v8.939a1.49,1.49,0,0,0,1.49,1.49m1.49-8.939h5.96v5.959h-5.96Z" transform="translate(-1132.264 -4870.208)"/><path class="a" d="M1148.652,4902.985h-8.939a1.49,1.49,0,0,0-1.49,1.49v8.94a1.49,1.49,0,0,0,1.49,1.489h8.939a1.489,1.489,0,0,0,1.49-1.489v-8.94a1.489,1.489,0,0,0-1.49-1.49m-1.49,8.94H1141.2v-5.96h5.959Z" transform="translate(-1132.264 -4870.208)"/><path class="a" d="M1160.571,4908.946h5.96a1.49,1.49,0,0,0,1.49-1.49v-5.96a1.49,1.49,0,0,0-1.49-1.489h-5.96a1.489,1.489,0,0,0-1.489,1.489v5.96a1.489,1.489,0,0,0,1.489,1.49m1.49-5.96h2.98v2.98h-2.98Z" transform="translate(-1132.264 -4870.209)"/><path class="a" d="M1179.94,4900.007h-5.96a1.489,1.489,0,0,0-1.489,1.489v5.96a1.489,1.489,0,0,0,1.489,1.49h5.96a1.49,1.49,0,0,0,1.49-1.49v-5.96a1.49,1.49,0,0,0-1.49-1.489m-1.49,5.959h-2.98v-2.98h2.98Z" transform="translate(-1132.264 -4870.209)"/><path class="a" d="M1185.9,4901.5v5.96a1.489,1.489,0,0,0,1.489,1.49h5.96a1.49,1.49,0,0,0,1.49-1.49v-5.96a1.49,1.49,0,0,0-1.49-1.489h-5.96a1.489,1.489,0,0,0-1.489,1.489m2.979,1.49h2.98v2.98h-2.98Z" transform="translate(-1132.264 -4870.209)"/><path class="a" d="M1160.571,4920.865h5.96a1.49,1.49,0,0,0,1.49-1.49v-5.959a1.49,1.49,0,0,0-1.49-1.49h-5.96a1.489,1.489,0,0,0-1.489,1.49v5.959a1.489,1.489,0,0,0,1.489,1.49m1.49-5.96h2.98v2.98h-2.98Z" transform="translate(-1132.264 -4870.208)"/><path class="a" d="M1179.94,4911.925h-5.96a1.489,1.489,0,0,0-1.489,1.49v5.959a1.489,1.489,0,0,0,1.489,1.49h5.96a1.49,1.49,0,0,0,1.49-1.49v-5.959a1.49,1.49,0,0,0-1.49-1.49m-1.49,5.959h-2.98v-2.98h2.98Z" transform="translate(-1132.264 -4870.208)"/><path class="a" d="M1193.349,4911.925h-5.96a1.489,1.489,0,0,0-1.489,1.49v5.959a1.489,1.489,0,0,0,1.489,1.49h5.96a1.49,1.49,0,0,0,1.49-1.49v-5.959a1.49,1.49,0,0,0-1.49-1.49m-1.49,5.959h-2.98v-2.98h2.98Z" transform="translate(-1132.264 -4870.208)"/><path class="a" d="M1160.571,4932.784h5.96a1.49,1.49,0,0,0,1.49-1.49v-5.959a1.49,1.49,0,0,0-1.49-1.49h-5.96a1.489,1.489,0,0,0-1.489,1.49v5.959a1.489,1.489,0,0,0,1.489,1.49m1.49-5.959h2.98v2.979h-2.98Z" transform="translate(-1132.264 -4870.208)"/><path class="a" d="M1179.94,4923.845h-5.96a1.489,1.489,0,0,0-1.489,1.49v5.959a1.489,1.489,0,0,0,1.489,1.49h5.96a1.49,1.49,0,0,0,1.49-1.49v-5.959a1.49,1.49,0,0,0-1.49-1.49m-1.49,5.959h-2.98v-2.979h2.98Z" transform="translate(-1132.264 -4870.208)"/><path class="a" d="M1193.349,4923.845h-5.96a1.489,1.489,0,0,0-1.489,1.49v5.959a1.489,1.489,0,0,0,1.489,1.49h5.96a1.49,1.49,0,0,0,1.49-1.49v-5.959a1.49,1.49,0,0,0-1.49-1.49m-1.49,5.959h-2.98v-2.979h2.98Z" transform="translate(-1132.264 -4870.208)"/><path class="a" d="M1148.652,4917.885h-8.939a1.49,1.49,0,0,0-1.49,1.49v8.939a1.49,1.49,0,0,0,1.49,1.49h8.939a1.489,1.489,0,0,0,1.49-1.49v-8.939a1.489,1.489,0,0,0-1.49-1.49m-1.49,8.94H1141.2v-5.96h5.959Z" transform="translate(-1132.264 -4870.209)"/><path class="a" d="M1148.652,4932.784h-8.939a1.49,1.49,0,0,0-1.49,1.49v8.939a1.49,1.49,0,0,0,1.49,1.49h8.939a1.489,1.489,0,0,0,1.49-1.49v-8.939a1.489,1.489,0,0,0-1.49-1.49m-1.49,8.939H1141.2v-5.959h5.959Z" transform="translate(-1132.264 -4870.208)"/><path class="a" d="M1168.021,4891.067h4.47v4.47a1.489,1.489,0,0,0,1.489,1.49h5.96a1.49,1.49,0,0,0,1.49-1.49v-4.47h4.47a1.489,1.489,0,0,0,1.489-1.49v-5.959a1.489,1.489,0,0,0-1.489-1.49h-4.47v-4.47a1.49,1.49,0,0,0-1.49-1.49h-5.96a1.489,1.489,0,0,0-1.489,1.49v4.47h-4.47a1.489,1.489,0,0,0-1.49,1.49v5.959a1.489,1.489,0,0,0,1.49,1.49m1.49-5.959h4.469a1.489,1.489,0,0,0,1.49-1.49v-4.47h2.98v4.47a1.49,1.49,0,0,0,1.49,1.49h4.47v2.979h-4.47a1.49,1.49,0,0,0-1.49,1.49v4.47h-2.98v-4.47a1.489,1.489,0,0,0-1.49-1.49h-4.469Z" transform="translate(-1132.264 -4870.209)"/><rect class="a" width="2.98" height="2.98" transform="translate(59.595 80.454)"/><rect class="a" width="2.98" height="2.98" transform="translate(59.595 74.494)"/><rect class="a" width="2.98" height="2.98" transform="translate(59.595 68.535)"/></svg>