<svg xmlns="http://www.w3.org/2000/svg" width="97.552" height="97.557" viewBox="0 0 97.552 97.557"><defs><style>.a{fill:#007c3e;}</style></defs><path class="a" d="M3946.07,4951.476a1.905,1.905,0,1,0-1.347-.558,1.918,1.918,0,0,0,1.347.558" transform="translate(-3913.144 -4866.127)"/><path class="a" d="M4008.79,4959.873h-9.166l-3.483-6.225v-16.984a9.047,9.047,0,0,0-6.4-8.681l-14.617-4.537v-15.478a7.154,7.154,0,0,0-1.171-3.929,10.572,10.572,0,0,0-2.5-20.529v-7.844a9.549,9.549,0,0,0-9.539-9.539,1.905,1.905,0,0,0-1.906,1.905v15.208h-.026a6.2,6.2,0,0,0-6.313,6.088,6.209,6.209,0,0,0,6.089,6.314l.111,0a25.547,25.547,0,0,1-2.725,9.03,7.187,7.187,0,0,0-.8,3.294v16.389l-4.59,8.27-24.592,15.461a7.944,7.944,0,0,0-3.737,6.762v5.023h-8.383a1.906,1.906,0,1,0,0,3.811h93.741a1.906,1.906,0,0,0,0-3.811m-31.506-65.832a6.776,6.776,0,0,1-5.822,6.7v-13.4a6.775,6.775,0,0,1,5.822,6.7m-13.456-23.778a5.738,5.738,0,0,1,3.823,5.4v27.29a1.9,1.9,0,0,0,1.329,1.816,3.342,3.342,0,0,1,2.337,3.2v14.977h-11.154v-14.977a3.321,3.321,0,0,1,.373-1.54,29.144,29.144,0,0,0,3.292-13.357Zm-5.671,20.837a2.392,2.392,0,0,1,1.721-4.052h.08l.059,0v4.788l-.181,0a2.381,2.381,0,0,1-1.679-.731m-16.189,60.486a1.906,1.906,0,0,0-2.551-.87l-8.442,4.147a1.872,1.872,0,0,0-.353.225l-3.378,2.715v-2.953a4.153,4.153,0,0,1,1.954-3.536l25.006-15.721a1.916,1.916,0,0,0,.652-.688l4.523-8.15h10.283l-5.5,8.262a23.523,23.523,0,0,1-9.2,8.063l-3.945,1.938a1.905,1.905,0,1,0,1.68,3.42l3.944-1.937a27.336,27.336,0,0,0,10.689-9.371l1.5-2.246,15.581,5.739v17.614a5.46,5.46,0,0,0,.25,1.636h-53.906l2.094-1.683,8.253-4.054a1.906,1.906,0,0,0,.87-2.55m47.886,8.287a1.638,1.638,0,0,1-1.636-1.636v-18.942a1.906,1.906,0,0,0-1.247-1.788L3971,4931.623l2.073-3.112.946-1.419,14.6,4.53a5.256,5.256,0,0,1,3.715,5.042v17.481a1.9,1.9,0,0,0,.242.93l2.684,4.8Z" transform="translate(-3913.144 -4866.127)"/></svg>