<svg xmlns="http://www.w3.org/2000/svg" width="90" height="91.443" viewBox="0 0 90 91.443"><defs><style>.a{fill:#005c51;}</style></defs><g transform="translate(386.315 -599.415)"><path class="a" d="M-310.715,625.815a30.662,30.662,0,0,0-22.571-25.325c-1.859-.484-3.782-.723-5.676-1.075h-4.644a4.044,4.044,0,0,1-.592.15,30.628,30.628,0,0,0-17.215,7.293c-1.04.88-1.268,1.634-.717,2.323.579.724,1.376.632,2.466-.285a28.1,28.1,0,0,1,19.776-6.762c1.263.048,2.519.262,3.762.4a5.569,5.569,0,0,1-4.3,5.063c-1.569.338-3.157.586-4.724.931-3.931.866-6.826,2.969-8.158,6.918a15.619,15.619,0,0,1-.715,1.633,3.852,3.852,0,0,1-.348.519,20.335,20.335,0,0,0-1.024-2.442c-.981-1.7-2.843-2.376-4.323-1.473-2.474,1.509-3.62,3.477-2.433,6.1a2.256,2.256,0,0,1,.276.749,5.541,5.541,0,0,1-.025,2.171,3.247,3.247,0,0,0,.661,3.476,15.464,15.464,0,0,0,5.834,4.6,5.539,5.539,0,0,0,3,.548,5.791,5.791,0,0,1,5.994,2.467c1.262,1.615,2.4,3.33,3.592,5a7.451,7.451,0,0,0,3.955,2.858,18.486,18.486,0,0,1,4.211,2.229,1.929,1.929,0,0,1,.642,2.467,5.639,5.639,0,0,1-2.938,3.424,12.807,12.807,0,0,1-2.6.916,15.172,15.172,0,0,0-6.881,3.2c-1.053.914-2.03,1.916-3.057,2.862-.194.179-.52.453-.68.4-1.491-.547-2.959-1.157-4.433-1.748.585-1.428,1.125-2.651,1.589-3.9a5.851,5.851,0,0,0-1.14-6.244,36.19,36.19,0,0,0-2.916-2.88,4.4,4.4,0,0,1-1.359-5.3,14.846,14.846,0,0,1,.744-1.618,2.847,2.847,0,0,0-.959-3.98c-.976-.68-1.983-1.315-2.958-2a32.051,32.051,0,0,1-6.319-5.485,1.653,1.653,0,0,1-.387-1.915c.653-1.527,1.145-3.132,1.9-4.606a49.625,49.625,0,0,1,2.635-4.234c.381-.591.523-1.234-.017-1.7a1.981,1.981,0,0,0-1.421-.4c-.356.05-.71.5-.962.854a30.524,30.524,0,0,0-5.68,23.116A30.953,30.953,0,0,0-335.812,660.8,30.843,30.843,0,0,0-310.715,625.815Zm-44.853,24.948c-.424,1.012-.864,2.017-1.32,3.08-9.332-5.928-13.983-17.552-12.364-26.941l9.169,7.03a34.619,34.619,0,0,0-1.214,3.633,6.549,6.549,0,0,0,2.226,6.587c.964.884,1.937,1.764,2.825,2.72A3.421,3.421,0,0,1-355.568,650.763Zm42.322-23.912c1.015,10.257-2.426,18.69-10.14,25.393l-.37-.117a15.017,15.017,0,0,1,.764-2.659c.93-1.891,2-3.714,3.01-5.563.658-1.2,1.366-2.372,1.968-3.6a10.025,10.025,0,0,0,.826-2.344,3.826,3.826,0,0,0-2.822-4.831,12.068,12.068,0,0,1-4.6-2.255,7.163,7.163,0,0,1-1.031-9.037,15.009,15.009,0,0,1,2.383-2.517,4.258,4.258,0,0,0,1.47-4.864,3.243,3.243,0,0,1-.054-1.385,2.53,2.53,0,0,0-.692-2.129c-.567-.65-1.207-1.238-1.749-1.908-.435-.539-.771-1.158-1.256-1.9C-320.416,608.826-313.991,619.326-313.246,626.851Zm-32.915,31.319c-.229-.038-.452-.107-.858-.2,2.1-1.972,4.1-3.663,6.831-4.354a23.386,23.386,0,0,0,5.227-1.955,7.559,7.559,0,0,0,3.8-5.851,4.265,4.265,0,0,0-1.435-3.691,11.861,11.861,0,0,0-5.544-3.092,4.485,4.485,0,0,1-2.641-1.949c-1.177-1.716-2.34-3.448-3.631-5.076a8.325,8.325,0,0,0-5.215-3.342,23.7,23.7,0,0,0-2.656-.033,5.453,5.453,0,0,1-1.89-.243,12.908,12.908,0,0,1-4.83-3.723,1.309,1.309,0,0,1-.306-1.006,6.732,6.732,0,0,0-.272-4.7c-.538-1.356-.459-1.575.615-2.553.584-.531.94-.5,1.327.206a7.947,7.947,0,0,1,.462,1.248,14.519,14.519,0,0,0,.55,1.6,2.24,2.24,0,0,0,3.767.629,6.067,6.067,0,0,0,.994-1.362,12.132,12.132,0,0,0,.959-2.106c1.062-3.33,3.493-4.961,6.774-5.578,1.285-.241,2.566-.507,3.855-.723,3.624-.607,5.629-2.933,6.7-6.262.073-.224.131-.454.265-.926,1.709.729,3.385,1.434,5.047,2.171a.62.62,0,0,1,.2.517c-.287,2.4.857,4.187,2.464,5.763a2.27,2.27,0,0,1,.978,2.2,3.2,3.2,0,0,0,.285,1.47,1.676,1.676,0,0,1-.651,2.032c-.6.478-1.138,1.045-1.7,1.581-3.748,3.6-3.4,10.387-.508,13.26a12.554,12.554,0,0,0,5.188,3.18c2.626.817,2.888,1.333,1.6,3.8-1.39,2.659-2.96,5.223-4.387,7.863a10.555,10.555,0,0,0-1.521,5.253,1.657,1.657,0,0,0,.044.619c.551,1.2-.225,1.627-1.1,2.111A28.207,28.207,0,0,1-346.161,658.17Z"/><path class="a" d="M-342.906,683.406a3.087,3.087,0,0,0-3.3-3.292q-8.032-.016-16.066,0a3.08,3.08,0,0,0-3.269,3.233c-.024,1.219.044,2.441-.017,3.658a3.482,3.482,0,0,0,2.483,3.852h17.86a3.751,3.751,0,0,0,2.325-4.151C-342.972,685.613-342.893,684.507-342.906,683.406Zm-2.667.263q-.051,1.827,0,3.656c.019.675-.264.87-.9.864-2.616-.024-5.232-.01-7.849-.01-2.5,0-4.995-.031-7.492.018-.843.017-1.1-.279-1.059-1.085.053-1.127.04-2.259,0-3.388-.022-.676.19-.95.911-.947q7.76.035,15.52,0C-345.776,682.776-345.555,683.021-345.573,683.669Z"/><path class="a" d="M-317.034,683.257a3.056,3.056,0,0,0-3.18-3.14q-8.121-.026-16.243,0a3.063,3.063,0,0,0-3.2,3.2c-.02,1.13.066,2.266-.02,3.39a3.745,3.745,0,0,0,2.326,4.15h17.86A3.489,3.489,0,0,0-317.014,687C-317.074,685.758-317,684.505-317.034,683.257Zm-3.561,4.933c-2.586-.026-5.173-.011-7.76-.011-2.556,0-5.114-.022-7.67.014-.747.011-1-.244-.973-.98.045-1.187.03-2.378,0-3.567-.012-.585.153-.868.8-.866q7.849.025,15.7,0c.575,0,.8.216.795.786-.019,1.248-.027,2.5,0,3.746C-319.681,687.973-319.942,688.2-320.6,688.19Z"/><path class="a" d="M-363.059,677.206a1.314,1.314,0,0,0-.022-1.979,20.185,20.185,0,0,0-2.414-2.1c-2.79-2.029-5.654-3.957-8.413-6.026a16.916,16.916,0,0,1-3.369-3.159c-3.381-4.446-5-9.674-6.269-15.019-.058-.243.259-.575.4-.866.286.15.713.227.833.462a38.871,38.871,0,0,1,1.68,3.64,14.8,14.8,0,0,0,3.831,5.525,23.723,23.723,0,0,0,4.431,3.569,28.354,28.354,0,0,1,6.264,5.223c.61.61,1.215,1.226,1.827,1.834.819.812,1.565.916,2.173.311.631-.627.554-1.357-.251-2.171-1.674-1.693-3.437-3.307-5.005-5.092a30.622,30.622,0,0,1-2.7-3.969.871.871,0,0,1,.167-.842,1.218,1.218,0,0,1,.953-.075c.252.08.436.386.64.6,2.169,2.29,4.324,4.594,6.514,6.864a5.307,5.307,0,0,0,1.427,1.027c2.524,1.263,5.064,2.495,7.608,3.719a7.416,7.416,0,0,1,4.239,5.5c.124.611.16,1.238.244,1.857a1.3,1.3,0,0,0,1.5,1.274,1.34,1.34,0,0,0,1.159-1.535,10.583,10.583,0,0,0-6.317-9.691c-2.279-1.088-4.557-2.18-6.813-3.313a5.6,5.6,0,0,1-1.485-1.092c-2.191-2.269-4.34-4.578-6.518-6.86a3.413,3.413,0,0,0-3.9-.963,3.364,3.364,0,0,0-2.224,3.248c-.006.116-.019.231-.046.538-2.068-1.857-3.981-3.575-5.026-6.045-.648-1.532-1.329-3.054-2.1-4.526a3.281,3.281,0,0,0-4.052-1.551,3.245,3.245,0,0,0-2.136,3.694,60.461,60.461,0,0,0,3.62,11.073,24.6,24.6,0,0,0,8.75,10.233c1.546,1,3.055,2.067,4.538,3.162,1.457,1.074,2.881,2.2,4.276,3.349C-364.339,677.617-363.636,677.739-363.059,677.206Z"/><path class="a" d="M-298.5,645.517a3.323,3.323,0,0,0-4.213,1.86c-.663,1.4-1.321,2.8-1.919,4.22-1.038,2.474-2.96,4.187-4.967,6a12.663,12.663,0,0,0-.338-1.706,3.46,3.46,0,0,0-5.893-1.058c-2.177,2.241-4.287,4.548-6.461,6.792a6.186,6.186,0,0,1-1.628,1.193c-2.52,1.273-5.1,2.431-7.6,3.744-3.794,1.994-5.262,5.395-5.45,9.485a1.317,1.317,0,0,0,1.27,1.361,1.354,1.354,0,0,0,1.383-1.242,2.62,2.62,0,0,0,.022-.267,8.22,8.22,0,0,1,5.394-7.694c2.158-.917,4.253-1.989,6.336-3.071a8.465,8.465,0,0,0,2.12-1.566c2.185-2.232,4.31-4.525,6.454-6.8.379-.4.794-.7,1.306-.271.477.4.254.827-.014,1.268a23.233,23.233,0,0,1-4.156,5.32c-1.189,1.077-2.28,2.263-3.408,3.408-.762.774-.832,1.48-.229,2.106.576.6,1.344.546,2.115-.206.916-.893,1.807-1.813,2.689-2.739a24.327,24.327,0,0,1,5.014-4.086c4.123-2.505,7.469-5.78,9.2-10.442a20.258,20.258,0,0,1,1.191-2.589c.132-.243.538-.337.818-.5a2.887,2.887,0,0,1,.414.945,4.305,4.305,0,0,1-.281,1.115,40.631,40.631,0,0,1-4.826,12.213,14.341,14.341,0,0,1-3.572,4.06c-2.515,1.851-5.083,3.629-7.591,5.488-1.43,1.06-2.823,2.177-4.156,3.354a1.292,1.292,0,0,0-.042,1.976,1.383,1.383,0,0,0,1.984-.163,26.169,26.169,0,0,1,2.306-1.958c2.748-1.986,5.538-3.913,8.29-5.893a20.353,20.353,0,0,0,5.526-6.219c2.49-4.143,3.8-8.692,4.967-13.308A3.363,3.363,0,0,0-298.5,645.517Z"/></g></svg>